<svg width="1823" height="1028" viewBox="0 0 1823 1028" fill="none" xmlns="http://www.w3.org/2000/svg">
<path d="M1821.74 903.987L1735.78 994.169L1695.92 1025.13" stroke="white" stroke-opacity="0.36" stroke-width="1.08501" stroke-linecap="round" stroke-linejoin="round"/>
<path d="M1.00049 839.922L13.8874 857.228L110.855 952.171L211.073 1025.13" stroke="white" stroke-opacity="0.36" stroke-width="1.08501" stroke-linecap="round" stroke-linejoin="round"/>
<path d="M1.00049 694.598L8.5843 708.939L82.0299 805.564L172.155 892.296L277.334 967.709L385.734 1025.13" stroke="white" stroke-opacity="0.36" stroke-width="1.08501" stroke-linecap="round" stroke-linejoin="round"/>
<path d="M1821.74 132.523L1804.67 86.4206L1757.28 1.59888" stroke="white" stroke-opacity="0.36" stroke-width="1.08501" stroke-linecap="round" stroke-linejoin="round"/>
<path d="M1548.09 1025.13L1558.21 1019.49L1672.03 932.441L1765.72 835.93L1821.75 757.01" stroke="white" stroke-opacity="0.36" stroke-width="1.08501" stroke-linecap="round" stroke-linejoin="round"/>
<path d="M87.7037 1.59888L75.729 17.8217L30.9376 100.448L1.00049 183.188" stroke="white" stroke-opacity="0.36" stroke-width="1.08501" stroke-linecap="round" stroke-linejoin="round"/>
<path d="M1.00049 493.22L28.4285 574.079L80.4335 670.105L148.747 758.177L232.057 837.04L328.854 905.468L437.426 962.263L555.777 1006.26L634.697 1025.13" stroke="white" stroke-opacity="0.36" stroke-width="1.08501" stroke-linecap="round" stroke-linejoin="round"/>
<path d="M944.162 1.59888L937.405 73.7046L930.591 152.51L924.432 229.776L918.929 304.932L914.083 377.523L909.891 447.148L906.327 513.466L903.334 576.191L900.938 635.124L899.085 690.037L898.23 722.427" stroke="white" stroke-opacity="0.36" stroke-width="1.08501" stroke-linecap="round" stroke-linejoin="round"/>
<path d="M1821.74 878.268L1765.72 835.928L1696.66 786.062L1629.09 740.415L1563.34 699.929L1499.82 665.572L1438.86 638.202L1380.9 618.643L1326.33 607.694L1267.68 603.56L1214.76 605.841L1167.41 613.796L1125.35 626.826L1088.29 644.217L1064.76 665.544L1036.02 683.193L1033.86 684.818L1033.06 685.502L1029.89 687.669" stroke="white" stroke-opacity="0.36" stroke-width="1.08501" stroke-linecap="round" stroke-linejoin="round"/>
<path d="M247.397 1.59888L203.147 63.7255L166.966 133.692L141.961 207.794L129.074 285.26L129.331 365.263L143.815 446.863L173.695 529.033L218.543 607.981L276.479 680.058L346.417 744.352L427.048 799.892L516.916 845.852L614.482 881.35L717.979 905.641L825.553 918.044L935.294 917.987L1045.21 905.042L1153.24 878.955L1257.25 839.637L1351.02 789.571L1431.99 731.037L1499.82 665.574L1554.22 594.724L1595.13 519.938L1622.56 442.614L1636.59 363.98L1637.33 285.203L1624.96 207.366L1599.61 131.383L1561.46 58.1089L1520.26 1.59888" stroke="white" stroke-opacity="0.36" stroke-width="1.08501" stroke-linecap="round" stroke-linejoin="round"/>
<path d="M885.597 1.59888L885.683 71.1096L885.796 150.258L885.967 227.78L886.139 303.222L886.367 376.068L886.595 445.922L886.852 512.439L887.137 575.336L887.422 634.383L887.707 689.41L887.907 722.427" stroke="white" stroke-opacity="0.36" stroke-width="1.08501" stroke-linecap="round" stroke-linejoin="round"/>
<path d="M1196.34 1.59888L1163.7 62.1287L1127.97 133.92L1095.3 205.285L1065.7 275.594L1039.19 344.421L1015.7 411.28L995.139 475.802L977.49 537.644L962.579 596.52L950.319 652.203L940.568 704.521L938.458 718.577" stroke="white" stroke-opacity="0.36" stroke-width="1.08501" stroke-linecap="round" stroke-linejoin="round"/>
<path d="M1042.84 520.222L1017.15 575.05L995.509 627.91L977.689 678.575L984.018 689.61L988.437 701.071L989.578 706.431" stroke="white" stroke-opacity="0.36" stroke-width="1.08501" stroke-linecap="round" stroke-linejoin="round"/>
<path d="M969.849 668.567L957.817 715.041" stroke="white" stroke-opacity="0.36" stroke-width="1.08501" stroke-linecap="round" stroke-linejoin="round"/>
<path d="M815.86 716.468L803.03 670.421L785.866 618.217L765.138 563.475L740.675 506.48L712.363 447.49L680.031 386.874L643.564 324.976L602.907 262.251L558.03 199.155L508.933 136.23L455.731 74.0178L407.347 23.9229L382.428 1.59888" stroke="white" stroke-opacity="0.36" stroke-width="1.08501" stroke-linecap="round" stroke-linejoin="round"/>
<path d="M684.676 1025.13L700.186 967.169L717.977 905.641L734.97 852.838L751.107 809.614L766.276 776.826L782.555 749.569L797.211 731.265L853.948 737.623L911.741 737.594L969.705 730.952L1026.9 717.522L1082.35 697.194L1132.88 671.134L1177.1 640.456L1214.76 605.843L1245.73 568.037L1269.76 527.693L1286.81 485.553L1296.76 442.216L1299.5 398.308L1294.96 354.4L1283.1 311.091L1263.86 268.894L1237.43 228.607L1205.38 192.483L1168.69 160.892L1127.97 133.92L1083.89 111.653L1037.05 94.1185L988.038 81.4311L937.402 73.7046L885.682 71.1096L833.42 73.818L781.101 81.9726L729.296 95.858L679.373 115.302L633.982 139.281L593.468 167.364L558.027 199.155L528.005 234.224L503.713 272.144L485.551 312.431L473.833 354.656L469.015 398.336L471.552 442.928L481.845 487.891L500.349 532.625L526.608 575.136L559.424 613.541L598.172 647.47L642.079 676.523L690.435 700.415L742.412 718.749L797.211 731.265L810.326 720.973L856.657 726.161L858.738 726.389L863.015 722.455H866.921H877.47L887.906 722.427H898.227H904.842L908.434 722.027L918.556 720.858L928.591 719.718L938.457 718.577L946.782 717.636L947.808 717.38L948.093 717.323L954.337 715.869L957.816 715.042L967.681 712.732L977.204 710.508L980.796 709.653L988.238 707.914L989.692 706.887L994.425 705.149L999.728 703.723L1002.52 702.212L1006.31 700.33L1009.25 699.104L1009.88 698.876L1010.33 698.277L1010.68 698.106L1017.32 694.713L1021.68 692.461L1022.65 691.947L1022.96 691.805L1026.67 689.895L1028.18 689.125L1028.9 688.583L1029.67 687.415L1029.95 687.101L1041.84 673.415L1052.79 655.681L1060.8 637.006L1065.79 617.675L1067.67 597.945L1066.39 578.073L1061.85 558.314L1053.99 538.898L1042.84 520.223L1072.75 463.741L1107.02 405.949L1145.85 347.187L1189.3 287.911L1237.43 228.607L1290.23 169.731L1347.71 111.881L1400.09 65.7497L1454.71 24.864L1491.12 1.59888" stroke="white" stroke-opacity="0.36" stroke-width="1.08501" stroke-linecap="round" stroke-linejoin="round"/>
<path d="M549.904 1.59888L502.803 33.2177L455.73 74.0178L415.5 119.18L382.627 168.163L357.593 220.453L340.971 275.48L333.387 332.617L335.468 391.237L347.899 450.598L371.336 509.959L405.35 566.611L448.402 618.017L499.609 663.579L558.086 702.753L622.751 735L692.547 759.862L766.277 776.826L842.745 785.465L920.696 785.408L998.817 776.399L1075.83 758.179L1150.24 730.666L1217.79 695.483L1276.58 654.141L1326.33 607.696L1366.84 557.116L1397.95 503.43L1419.53 447.518L1431.54 390.296L1433.93 332.56L1426.75 275.138L1409.92 218.714L1383.47 163.943L1347.71 111.881L1304.83 65.4073L1256.1 24.9211L1219.75 1.59888" stroke="white" stroke-opacity="0.36" stroke-width="1.08501" stroke-linecap="round" stroke-linejoin="round"/>
<path d="M166.822 1.59888L139.879 38.7494L99.5063 114.989L71.2231 195.933L56.0834 280.726L55.342 368.485L70.225 458.267L102.101 548.877L150.571 636.151L213.666 716.012L290.22 787.404L378.862 849.217L477.939 900.424L585.685 940.026L700.187 967.169L819.279 981.026L940.823 980.94L1062.51 966.485L1182.03 937.346L1296.88 893.496L1400.2 837.727L1489.16 772.606L1563.34 699.931L1622.56 621.467L1666.73 538.812L1695.95 453.563L1710.38 367.059L1710.18 280.64L1695.64 195.42L1666.95 112.451L1624.36 32.6476L1601.32 1.59888" stroke="white" stroke-opacity="0.36" stroke-width="1.08501" stroke-linecap="round" stroke-linejoin="round"/>
<path d="M1127.8 1.59888L1112.98 36.8672L1083.9 111.653L1057.27 185.754L1033.14 258.658L1011.5 329.851L992.345 398.821L975.58 465.224L961.153 528.719L949.007 589.021L939.028 645.902L931.074 699.189L928.593 719.717" stroke="white" stroke-opacity="0.36" stroke-width="1.08501" stroke-linecap="round" stroke-linejoin="round"/>
<path d="M977.204 710.508L984.019 689.61L1003.12 641.055L995.509 627.91L986.043 616.021L974.981 605.529L962.578 596.519L949.007 589.021L934.494 583.119L919.184 578.814L903.331 576.191L887.137 575.335L870.743 576.248L854.377 579.014L838.239 583.746L822.758 590.275L808.815 598.316L796.499 607.668L785.864 618.217L777.025 629.736L795.701 680.115L806.364 714.3" stroke="white" stroke-opacity="0.36" stroke-width="1.08501" stroke-linecap="round" stroke-linejoin="round"/>
<path d="M1365.67 1.59888L1351.99 14.4291L1304.83 65.4073L1253.05 128.618L1205.38 192.483L1161.87 256.434L1122.56 319.929L1087.37 382.541L1056.24 443.812L1029.07 503.373L1005.72 560.852L986.043 616.022L969.849 668.568L977.689 678.576L967.682 712.732" stroke="white" stroke-opacity="0.36" stroke-width="1.08501" stroke-linecap="round" stroke-linejoin="round"/>
<path d="M877.471 722.455L876.217 690.066L873.736 635.153L870.743 576.248L867.179 513.523L863.044 447.205L858.34 377.58L853.008 304.989L847.078 229.862L840.549 152.596L833.421 73.818L826.436 1.59888" stroke="white" stroke-opacity="0.36" stroke-width="1.08501" stroke-linecap="round" stroke-linejoin="round"/>
<path d="M336.267 1.59888L306.701 33.7028L265.045 93.2916L232.856 157.158L210.874 224.644L199.982 295.039L201.037 367.544L214.979 441.332L242.778 515.433L283.977 586.483L336.809 651.204L400.247 708.798L473.151 758.493L554.209 799.521L641.996 831.198L734.972 852.838L831.569 863.872L930.076 863.843L1028.75 852.296L1125.84 829.031L1219.44 793.99L1304.03 749.256L1377.28 696.88L1438.86 638.204L1488.5 574.566L1526.14 507.25L1551.68 437.482L1565.14 366.375L1566.62 294.982L1556.22 224.245L1533.95 155.048L1499.96 88.1594L1454.72 24.864L1432.53 1.59888" stroke="white" stroke-opacity="0.36" stroke-width="1.08501" stroke-linecap="round" stroke-linejoin="round"/>
<path d="M866.923 722.455L864.756 692.033L860.109 637.491L854.378 579.014L847.535 516.83L839.552 451.139L830.343 382.199L819.908 310.379L808.218 236.106L795.273 159.781L781.103 81.9726L765.736 3.28061L765.365 1.59888" stroke="white" stroke-opacity="0.36" stroke-width="1.08501" stroke-linecap="round" stroke-linejoin="round"/>
<path d="M1821.74 722.625L1765.43 691.205L1693.1 653.913L1622.56 621.466L1554.22 594.723L1488.5 574.565L1425.89 561.792L1366.84 557.115L1303.2 559.71L1245.73 568.036L1194.15 581.379L1148.27 599.17L1107.76 620.81L1088.28 644.218L1063.17 660.669L1055.92 665.431L1035.91 683.023" stroke="white" stroke-opacity="0.36" stroke-width="1.08501" stroke-linecap="round" stroke-linejoin="round"/>
<path d="M1562.69 1025.13L1558.21 1019.49L1504.04 953.654L1451.32 892.754L1400.2 837.727L1351.02 789.57L1304.03 749.255L1259.5 717.636L1217.79 695.482L1173.05 679.488L1132.88 671.133L1097.04 669.68L1065.28 674.327L1037.39 684.392" stroke="white" stroke-opacity="0.36" stroke-width="1.08501" stroke-linecap="round" stroke-linejoin="round"/>
<path d="M737.194 687.698L709.31 678.232L677.691 674.269L642.08 676.521L602.278 685.759L558.085 702.752L516.915 725.846L473.15 758.492L427.046 799.891L378.862 849.216L328.853 905.469L277.332 967.709L232.113 1025.13" stroke="white" stroke-opacity="0.36" stroke-width="1.08501" stroke-linecap="round" stroke-linejoin="round"/>
<path d="M856.201 721.685L853.436 695.397L846.621 641.454L838.239 583.746L828.146 522.418L816.314 457.754L802.657 390.011L787.146 319.531L769.754 246.684L750.48 171.955L729.297 95.858L706.259 18.9619L700.671 1.59888" stroke="white" stroke-opacity="0.36" stroke-width="1.08501" stroke-linecap="round" stroke-linejoin="round"/>
<path d="M986.072 707.742L988.438 701.071L1008.48 654.712L1032.86 607.04L1026.39 590.731L1017.15 575.05L1005.72 560.851L992.43 548.363L977.49 537.643L961.153 528.719L943.703 521.705L925.342 516.601L906.325 513.465L886.852 512.439L867.179 513.523L847.534 516.83L828.146 522.418L809.557 530.201L792.792 539.781L777.938 550.929L765.136 563.475L754.444 577.217L746.005 591.986L770.04 642.109L789.913 690.493L797.383 712.248" stroke="white" stroke-opacity="0.36" stroke-width="1.08501" stroke-linecap="round" stroke-linejoin="round"/>
<path d="M845.425 720.487L842.602 700.073L833.735 646.956L822.758 590.276L809.557 530.202L794.047 466.992L776.113 400.903L755.727 332.247L732.804 261.452L707.372 188.976L679.374 115.302L648.924 40.9734L631.503 1.59888" stroke="white" stroke-opacity="0.36" stroke-width="1.08501" stroke-linecap="round" stroke-linejoin="round"/>
<path d="M433.52 1.59888L407.346 23.9229L362.184 73.7902L325.062 127.962L296.579 185.925L277.42 247.025L268.268 310.635L269.921 375.983L283.179 442.358L308.811 508.847L346.389 572.456L394.231 630.277L451.425 681.627L516.916 725.848L589.535 762.314L668.056 790.426L751.109 809.614L837.328 819.422L925.201 819.366L1013.24 809.158L1099.98 788.516L1183.71 757.381L1259.5 717.636L1325.36 670.992L1380.9 618.644L1425.89 561.793L1460.22 501.519L1483.8 438.908L1496.6 374.928L1498.65 310.578L1489.93 246.655L1470.54 183.987L1440.46 123.314L1400.09 65.7497L1351.99 14.429L1336.31 1.59888" stroke="white" stroke-opacity="0.36" stroke-width="1.08501" stroke-linecap="round" stroke-linejoin="round"/>
<path d="M1.00049 18.5345L10.3805 1.59888" stroke="white" stroke-opacity="0.36" stroke-width="1.08501" stroke-linecap="round" stroke-linejoin="round"/>
<path d="M1372.46 1025.13L1380.82 1021.88L1504.04 953.654L1609.51 874.277L1696.67 786.063L1765.44 691.205L1815.9 591.786L1821.75 573.425" stroke="white" stroke-opacity="0.36" stroke-width="1.08501" stroke-linecap="round" stroke-linejoin="round"/>
<path d="M782.272 708.824L763.539 710.307L742.413 718.746L718.805 734.969L692.546 759.86L668.054 790.424L641.995 831.196L614.481 881.348L585.685 940.024L555.776 1006.26L547.736 1025.13" stroke="white" stroke-opacity="0.36" stroke-width="1.08501" stroke-linecap="round" stroke-linejoin="round"/>
<path d="M1221.43 1025.13L1212.03 1003.27L1182.03 937.346L1153.23 878.955L1125.84 829.031L1099.98 788.516L1075.83 758.18L1050.02 733.546L1026.9 717.522L1006.37 709.254L988.239 707.914" stroke="white" stroke-opacity="0.36" stroke-width="1.08501" stroke-linecap="round" stroke-linejoin="round"/>
<path d="M1063.94 1.59888L1059.18 16.9948L1037.05 94.1185L1016.81 170.415L998.447 245.315L981.996 318.333L967.398 388.984L954.654 456.899L943.705 521.705L934.496 583.119L926.912 640.941L920.896 694.97L918.558 720.858" stroke="white" stroke-opacity="0.36" stroke-width="1.08501" stroke-linecap="round" stroke-linejoin="round"/>
<path d="M1.00049 968.509L48.3295 1015.7L61.1026 1025.13" stroke="white" stroke-opacity="0.36" stroke-width="1.08501" stroke-linecap="round" stroke-linejoin="round"/>
<path d="M835.131 719.319L832.85 705.776L822.13 653.714L808.814 598.316L792.791 539.782L773.916 478.339L752.105 414.274L727.243 347.928L699.302 279.672L668.196 209.96L633.982 139.281L596.689 68.1728L558.826 1.59888" stroke="white" stroke-opacity="0.36" stroke-width="1.08501" stroke-linecap="round" stroke-linejoin="round"/>
<path d="M969.849 668.568L960.668 659.786L950.319 652.202L939.028 645.902L926.911 640.941L914.166 637.32L900.937 635.124L887.422 634.383L873.737 635.153L860.109 637.491L846.622 641.454L833.736 646.956L822.131 653.714L811.867 661.583L803.029 670.421L795.701 680.115L789.913 690.493L785.75 701.413L784.239 708.399" stroke="white" stroke-opacity="0.36" stroke-width="1.08501" stroke-linecap="round" stroke-linejoin="round"/>
<path d="M858.741 726.388L853.951 737.621L848.619 757.009L842.746 785.464L837.328 819.421L831.57 863.87L825.553 918.042L819.281 981.024L815.232 1025.13" stroke="white" stroke-opacity="0.36" stroke-width="1.08501" stroke-linecap="round" stroke-linejoin="round"/>
<path d="M821.961 717.864L810.328 720.972L799.523 718.519L763.541 710.308L762.144 709.823L719.091 694.655L690.438 700.414L658.391 713.587L622.752 734.999L589.535 762.313L554.21 799.52L516.917 845.851L477.941 900.423L437.426 962.264L398.822 1025.13" stroke="white" stroke-opacity="0.36" stroke-width="1.08501" stroke-linecap="round" stroke-linejoin="round"/>
<path d="M1123.21 1025.13L1212.03 1003.26L1338.13 954.567L1451.32 892.754L1548.43 820.677L1629.09 740.417L1693.1 653.913L1740.49 563.076L1771.36 469.529L1785.96 374.9L1784.65 280.583L1767.71 187.808L1735.47 97.6825L1688.22 11.2069L1680.95 1.59888" stroke="white" stroke-opacity="0.36" stroke-width="1.08501" stroke-linecap="round" stroke-linejoin="round"/>
<path d="M1077.82 1025.13L1062.51 966.483L1045.2 905.04L1028.75 852.294L1013.24 809.156L998.816 776.397L983.448 749.225L969.706 730.95L957.503 720.714L946.783 717.634" stroke="white" stroke-opacity="0.36" stroke-width="1.08501" stroke-linecap="round" stroke-linejoin="round"/>
<path d="M949.236 710.908L940.569 704.521L931.074 699.189L920.895 694.969L910.204 691.89L899.084 690.037L887.708 689.41L876.218 690.065L864.756 692.033L853.437 695.397L842.603 700.073L832.852 705.775L824.242 712.447" stroke="white" stroke-opacity="0.36" stroke-width="1.08501" stroke-linecap="round" stroke-linejoin="round"/>
<path d="M740.731 688.297L738.735 687.014L738.336 686.501L718.435 669.451L701.015 649.436L686.845 627.169L681.57 623.263L648.553 598.8L604.874 573.225L555.578 550.986L500.351 532.625L439.023 518.739L371.336 509.958L308.811 508.846L242.778 515.432L173.694 529.032L102.102 548.876L28.4285 574.081L1.00049 584.914" stroke="white" stroke-opacity="0.36" stroke-width="1.08501" stroke-linecap="round" stroke-linejoin="round"/>
<path d="M1042.84 520.222L1029.07 503.371L1013.07 488.517L995.14 475.801L975.581 465.223L954.653 456.898L932.671 450.854L909.89 447.147L886.596 445.92L863.046 447.204L839.552 451.138L816.316 457.753L794.048 466.991L773.919 478.338L756.099 491.567L740.674 506.479L727.816 522.817L717.608 540.379L710.196 558.912L739.905 607.524L765.023 655.138L785.751 701.412L788.973 710.051" stroke="white" stroke-opacity="0.36" stroke-width="1.08501" stroke-linecap="round" stroke-linejoin="round"/>
<path d="M1273.61 1.59888L1256.11 24.9211L1210.63 92.7215L1168.69 160.892L1130.37 228.835L1095.67 296.037L1064.59 362.012L1037.11 426.306L1013.07 488.518L992.431 548.364L974.982 605.53L960.669 659.786L949.236 710.908L954.34 715.869" stroke="white" stroke-opacity="0.36" stroke-width="1.08501" stroke-linecap="round" stroke-linejoin="round"/>
<path d="M776.457 1.59888L765.736 3.28061L706.261 18.9619L648.925 40.9734L596.691 68.1728L549.933 100.078L508.933 136.23L474.092 176.146L445.752 219.398L424.34 265.473L410.369 313.828L404.296 363.951L406.691 415.243L418.067 467.049L439.023 518.74L469.017 567.951L506.738 612.515L551.444 651.917L602.28 685.761L658.391 713.588L718.806 734.971L782.558 749.569L848.619 757.011L915.963 756.982L983.45 749.227L1050.02 733.546L1114.46 709.824L1173.05 679.488L1224.2 643.792L1267.68 603.562L1303.21 559.711L1330.66 513.066L1349.94 464.369L1360.94 414.417L1363.59 363.922L1357.86 313.543L1343.72 263.933L1321.08 215.691L1290.23 169.731L1253.05 128.618L1210.63 92.7215L1163.7 62.1287L1112.98 36.8672L1059.18 16.9948L1002.92 2.65344L996.052 1.59888" stroke="white" stroke-opacity="0.36" stroke-width="1.08501" stroke-linecap="round" stroke-linejoin="round"/>
<path d="M819.451 717.294L824.24 712.448L811.866 661.583L796.499 607.668L777.938 550.93L756.097 491.568L730.808 429.898L701.954 366.232L669.48 300.941L633.327 234.509L593.468 167.364L549.931 100.078L502.802 33.2177L477.911 1.59888" stroke="white" stroke-opacity="0.36" stroke-width="1.08501" stroke-linecap="round" stroke-linejoin="round"/>
<path d="M949.234 710.907L948.094 717.322" stroke="white" stroke-opacity="0.36" stroke-width="1.08501" stroke-linecap="round" stroke-linejoin="round"/>
<path d="M825.382 718.235L824.242 712.448" stroke="white" stroke-opacity="0.36" stroke-width="1.08501" stroke-linecap="round" stroke-linejoin="round"/>
<path d="M765.195 701.471L762.543 696.538L761.175 682.511L762.03 668.654L765.024 655.139L770.042 642.109L777.027 629.736L754.447 577.217L727.817 522.818L696.938 466.821L661.613 409.569L621.754 351.406L577.219 292.815L528.008 234.224L474.093 176.146L415.502 119.18L362.185 73.7902L306.702 33.7029L254.583 1.59888" stroke="white" stroke-opacity="0.36" stroke-width="1.08501" stroke-linecap="round" stroke-linejoin="round"/>
<path d="M751.537 694.742L748.458 690.379L741.159 673.843L737.994 670.051L733.546 664.719L711.336 638.061L707.629 634.383L676.552 603.591L672.189 600.055L636.464 570.86L629.394 542.633L627.141 514.464L629.451 486.751L583.262 441.617L531.429 397.424L473.835 354.657L410.368 313.829L340.972 275.481L277.419 247.026L210.874 224.645L141.961 207.795L71.2243 195.933L1.00049 188.549" stroke="white" stroke-opacity="0.36" stroke-width="1.08501" stroke-linecap="round" stroke-linejoin="round"/>
<path d="M944.445 1025.13L940.824 980.941L935.293 917.987L930.075 863.844L925.2 819.366L920.695 785.409L915.962 756.983L911.742 737.595L908.064 726.361L904.843 722.427" stroke="white" stroke-opacity="0.36" stroke-width="1.08501" stroke-linecap="round" stroke-linejoin="round"/>
<path d="M751.109 694.541L748.458 690.378L744.209 685.531L720.032 657.846L715.356 653.513L686.845 627.168L676.552 603.589L670.45 579.725L668.397 555.889L627.141 514.462L580.297 474.09L527.636 435.228L469.016 398.335L404.295 363.95L333.387 332.616L268.267 310.633L199.982 295.038L129.074 285.258L56.0845 280.725L1.00049 280.668" stroke="white" stroke-opacity="0.36" stroke-width="1.08501" stroke-linecap="round" stroke-linejoin="round"/>
<path d="M763.654 700.701L762.542 696.538L760.489 693.401L736.768 657.078L735.171 640.285L736.254 623.72L739.904 607.525L746.006 591.987L717.608 540.381L684.649 487.606L646.9 433.975L604.246 379.889L556.546 325.803L503.715 272.144L445.751 219.398L382.626 168.163L325.062 127.962L265.045 93.2916L203.146 63.7255L139.879 38.7494L75.7286 17.8218L15.8545 1.59888" stroke="white" stroke-opacity="0.36" stroke-width="1.08501" stroke-linecap="round" stroke-linejoin="round"/>
<path d="M1821.74 282.407L1784.65 280.582L1710.18 280.639L1637.33 285.201L1566.62 294.98L1498.65 310.576L1433.93 332.558L1363.59 363.921L1299.5 398.306L1241.54 435.172L1189.56 474.061L1143.43 514.433L1102.88 555.86L1100.75 579.325L1094.87 602.334L1085.41 624.573L1072.38 645.729L1055.93 665.43L1036.77 683.906L1029.95 687.926L1028.75 688.467L1025.82 689.237L1022.65 691.946" stroke="white" stroke-opacity="0.36" stroke-width="1.08501" stroke-linecap="round" stroke-linejoin="round"/>
<path d="M1821.75 380.401L1785.96 374.898L1710.38 367.058L1636.59 363.978L1565.14 366.373L1496.6 374.927L1431.54 390.294L1360.94 414.416L1296.76 442.214L1238.83 473.12L1187.02 506.593L1145.31 538.868L1141.06 542.175L1104.31 576.047L1100.75 579.326L1068.76 614.423L1065.79 617.673L1042.18 648.609L1035.91 656.792L1031.69 672.958L1024.96 688.553L1022.97 691.803" stroke="white" stroke-opacity="0.36" stroke-width="1.08501" stroke-linecap="round" stroke-linejoin="round"/>
<path d="M1382.78 1025.13L1380.81 1021.88L1338.13 954.567L1296.88 893.496L1257.24 839.637L1219.44 793.99L1183.71 757.381L1150.24 730.667L1114.46 709.824L1082.36 697.194L1053.79 691.919L1028.5 693.203L1015.3 697.736L1009.57 699.703L1006.31 700.331" stroke="white" stroke-opacity="0.36" stroke-width="1.08501" stroke-linecap="round" stroke-linejoin="round"/>
<path d="M1722.58 1.59888L1688.22 11.2069L1624.36 32.6476L1561.46 58.1089L1499.96 88.1594L1440.46 123.314L1383.46 163.943L1321.08 215.691L1263.86 268.894L1211.82 322.98L1164.92 377.494L1123.07 431.923L1086.15 485.838L1053.99 538.898L1026.39 590.732L1003.12 641.055L1008.48 654.712L1011.5 668.568L1012.27 682.511L1010.85 696.31L1009.65 698.619" stroke="white" stroke-opacity="0.36" stroke-width="1.08501" stroke-linecap="round" stroke-linejoin="round"/>
<path d="M1821.74 84.3674L1804.66 86.4202L1735.47 97.6821L1666.95 112.451L1599.61 131.383L1533.95 155.048L1470.54 183.986L1409.92 218.713L1343.72 263.933L1283.1 311.091L1228.11 359.645L1178.61 409.085L1134.5 458.951L1095.64 508.818L1061.85 558.314L1032.86 607.04L1036.57 623.605L1037.56 640.285L1035.91 656.793L1015.84 688.44L1010.85 696.309L1010.33 698.276" stroke="white" stroke-opacity="0.36" stroke-width="1.08501" stroke-linecap="round" stroke-linejoin="round"/>
<path d="M1003.15 1.59888L1002.92 2.65344L988.041 81.4311L974.413 159.296L962.067 235.649L951.005 310.007L941.225 381.856L932.672 450.855L925.344 516.602L919.186 578.814L914.168 637.32L910.205 691.89L908.437 722.027" stroke="white" stroke-opacity="0.36" stroke-width="1.08501" stroke-linecap="round" stroke-linejoin="round"/>
<path d="M1821.74 482.758L1771.36 469.528L1695.95 453.562L1622.56 442.613L1551.68 437.481L1483.8 438.907L1419.53 447.517L1349.93 464.368L1286.81 485.552L1229.99 510.471L1179.21 538.583L1139.01 566.125L1134.27 569.375L1123.13 595.72L1090.14 620.953L1085.41 624.574L1057.01 651.631L1052.79 655.68L1033.8 678.119L1024.96 688.553" stroke="white" stroke-opacity="0.36" stroke-width="1.08501" stroke-linecap="round" stroke-linejoin="round"/>
<path d="M994.711 704.577L994.996 703.978L1011.5 668.567L1036.57 623.604L1066.39 578.072L1101.2 532.282L1141.26 486.578L1134.5 458.95L1123.07 431.922L1107.02 405.948L1087.37 382.54L1064.59 362.011L1039.19 344.42L1011.5 329.85L981.995 318.332L951.003 310.006L918.927 304.931L886.139 303.221L853.009 304.988L819.907 310.377L787.147 319.53L755.728 332.246L727.245 347.927L701.955 366.231L680.03 386.873L661.611 409.568L646.9 433.974L636.122 459.806L629.45 486.749L670.222 532.396L705.718 578.186L736.254 623.719L762.029 668.653L780.191 706.316L780.59 707.115" stroke="white" stroke-opacity="0.36" stroke-width="1.08501" stroke-linecap="round" stroke-linejoin="round"/>
<path d="M980.797 709.653L985.445 707.943L986.015 707.743H986.072L989.693 706.888L994.425 705.149L1002.52 702.212L1008.71 700.415L1009.57 699.418L1009.88 698.876L1015.3 697.736L1028.5 693.203L1037.05 688.812L1065.28 674.328L1073.43 668.711L1097.64 652.032L1125.35 626.828L1148.27 599.171L1166.26 569.605L1179.21 538.584L1187.02 506.594L1189.56 474.063L1186.79 441.417L1178.61 409.085L1164.92 377.494L1145.85 347.187L1122.56 319.93L1095.67 296.037L1065.7 275.594L1033.14 258.658L998.445 245.315L962.065 235.649L924.43 229.777L885.968 227.78L847.078 229.862L808.217 236.106L769.755 246.684L732.804 261.453L699.303 279.672L669.48 300.941L643.563 324.976L621.752 351.406L604.245 379.889L591.33 410.083L583.261 441.617L580.296 474.091L582.691 507.137L590.816 540.324L604.873 573.226L624.489 604.389L648.752 632.416L677.206 657.135L710.052 669.851L738.335 686.502L740.246 687.899L740.73 688.298L744.094 690.836L745.52 691.606L747.516 692.775L751.108 694.543L751.536 694.742L752.819 695.369L757.438 697.65L763.739 701.043L765.392 701.841L766.932 702.326L772.634 704.863L781.216 708.456L783.241 708.599L784.866 708.627L789.028 710.224L791.281 710.88" stroke="white" stroke-opacity="0.36" stroke-width="1.08501" stroke-linecap="round" stroke-linejoin="round"/>
<path d="M766.106 703.124L759.292 700.386L744.523 695.54L735.884 691.291L709.311 678.234L677.207 657.135L640 649.437L598.174 647.47L551.444 651.917L499.61 663.578L451.425 681.626L400.247 708.798L346.417 744.352L290.221 787.404L232.057 837.043L172.155 892.297L110.855 952.172L48.3295 1015.7L39.2627 1025.13" stroke="white" stroke-opacity="0.36" stroke-width="1.08501" stroke-linecap="round" stroke-linejoin="round"/>
<path d="M744.466 690.436L743.925 690.009L743.639 689.895L731.978 676.523L725.934 671.219L701.015 649.437L694.685 645.16L665.29 625.231L648.553 598.8L636.464 570.859L590.817 540.323L539.355 512.496L481.847 487.891L418.066 467.049L347.9 450.598L283.179 442.358L214.979 441.332L143.814 446.863L70.2261 458.267L1.00049 473.321" stroke="white" stroke-opacity="0.36" stroke-width="1.08501" stroke-linecap="round" stroke-linejoin="round"/>
<path d="M757.439 697.65L756.27 695.968L741.158 673.843L736.768 657.078L734.259 653.885L706.147 618.017L704.322 597.974L705.719 578.187L710.195 558.913L675.696 509.559L636.123 459.807L591.331 410.083L541.179 360.815L485.553 312.431L424.339 265.473L357.594 220.453L296.579 185.925L232.856 157.158L166.966 133.692L99.5075 114.989L30.9376 100.448L1.00049 95.6869" stroke="white" stroke-opacity="0.36" stroke-width="1.08501" stroke-linecap="round" stroke-linejoin="round"/>
<path d="M738.735 687.014L737.88 687.3L710.053 669.85L685.932 648.98L665.29 625.23L624.49 604.388L578.358 587.481L526.609 575.135L469.016 567.95L405.35 566.61L346.388 572.455L283.977 586.483L218.543 607.981L150.572 636.15L80.4335 670.107L8.5843 708.94L1.00049 713.359" stroke="white" stroke-opacity="0.36" stroke-width="1.08501" stroke-linecap="round" stroke-linejoin="round"/>
<path d="M858.74 726.388L908.065 726.359H908.179L918.186 725.191L957.504 720.714L965.915 718.718L975.238 716.551L1006.37 709.252L1009.65 708.055L1012.42 707.028L1053.79 691.917L1097.04 669.679L1134.99 643.448L1167.41 613.796L1194.15 581.378L1215.05 546.737L1229.99 510.47L1238.83 473.12L1241.54 435.172L1237.97 397.194L1228.11 359.644L1211.83 322.979L1189.3 287.909L1161.87 256.433L1130.37 228.834L1095.3 205.283L1057.27 185.753L1016.81 170.414L974.411 159.294L930.589 152.508L885.797 150.256L840.55 152.594L795.273 159.779L750.482 171.953L707.373 188.975L668.198 209.959L633.328 234.507L602.906 262.249L577.217 292.813L556.546 325.801L541.179 360.814L531.428 397.422L527.636 435.228L530.145 473.719L539.355 512.495L555.577 550.985L578.358 587.48L606.698 620.411L640 649.435L677.692 674.269L719.09 694.654L744.523 695.538L759.292 700.385L763.74 701.041L765.194 701.469L766.021 701.868L766.505 702.723L772.635 704.861L780.59 707.114L783.241 708.597L789.029 710.222L791.282 710.878L797.384 712.246L806.364 714.299L815.859 716.466L819.451 717.293L821.96 717.863L825.381 718.233L835.133 719.317L845.425 720.486L856.202 721.684L863.016 722.453" stroke="white" stroke-opacity="0.36" stroke-width="1.08501" stroke-linecap="round" stroke-linejoin="round"/>
<path d="M1821.74 184.842L1767.71 187.808L1695.64 195.42L1624.96 207.366L1556.22 224.245L1489.93 246.655L1426.75 275.138L1357.86 313.543L1294.97 354.4L1237.97 397.196L1186.79 441.417L1141.26 486.579L1143.43 514.435L1141.06 542.176L1134.28 569.376L1098.95 598.943L1094.87 602.336L1064.28 633.47L1060.8 637.006L1038.99 663.95L1031.69 672.959L1017.95 693.744L1017.32 694.713" stroke="white" stroke-opacity="0.36" stroke-width="1.08501" stroke-linecap="round" stroke-linejoin="round"/>
<path d="M1002.81 701.612L1002.89 701.44L1012.27 682.509L1037.56 640.283L1067.67 597.944L1102.88 555.861L1101.2 532.282L1095.64 508.817L1086.15 485.836L1072.75 463.74L1056.24 443.81L1037.11 426.304L1015.7 411.279L992.345 398.82L967.398 388.983L941.224 381.855L914.081 377.521L886.368 376.067L858.341 377.578L830.343 382.197L802.658 390.009L776.114 400.901L752.108 414.273L730.81 429.897L712.363 447.488L696.937 466.819L684.65 487.604L675.697 509.558L670.223 532.396L668.397 555.889L704.322 597.972L735.172 640.283L761.174 682.509L772.123 703.893L772.294 704.206" stroke="white" stroke-opacity="0.36" stroke-width="1.08501" stroke-linecap="round" stroke-linejoin="round"/>
<path d="M745.208 691.263L744.095 690.836L737.88 687.3L718.435 669.452L710.623 664.52L685.932 648.981L648.753 632.416L606.699 620.412L559.426 613.541L506.737 612.515L448.403 618.017L394.231 630.277L336.809 651.204L276.479 680.058L213.668 716.012L148.747 758.179L82.0299 805.566L13.8874 857.228L1.00049 867.464" stroke="white" stroke-opacity="0.36" stroke-width="1.08501" stroke-linecap="round" stroke-linejoin="round"/>
<path d="M1821.74 594.266L1815.9 591.785L1740.49 563.074L1666.73 538.811L1595.14 519.937L1526.14 507.248L1460.22 501.518L1397.95 503.428L1330.66 513.065L1269.76 527.692L1215.05 546.737L1166.27 569.603L1123.13 595.72L1107.76 620.81L1078.11 641.681L1072.38 645.729L1047.32 668.453L1041.84 673.414L1030.61 686.814L1029.95 687.926L1029.07 688.667" stroke="white" stroke-opacity="0.36" stroke-width="1.08501" stroke-linecap="round" stroke-linejoin="round"/>
<path d="M1767 1025.13L1735.78 994.17L1672.03 932.442L1609.5 874.279L1548.43 820.677L1489.16 772.607L1431.99 731.037L1377.28 696.88L1325.36 670.992L1276.57 654.141L1224.2 643.792L1177.1 640.456L1134.99 643.45L1097.64 652.032L1064.76 665.546L1036.76 683.908L1033.06 685.504" stroke="white" stroke-opacity="0.36" stroke-width="1.08501" stroke-linecap="round" stroke-linejoin="round"/>
<path d="M747.516 692.772L745.521 691.603L744.381 690.548L743.925 690.006L731.978 676.521L720.032 657.845L711.336 638.059L706.147 618.015L703.125 614.765L670.45 579.724L666.829 576.445L629.394 542.631L625.06 539.323L582.692 507.134L530.145 473.718L471.554 442.926L406.69 415.241L335.469 391.234L269.921 375.981L201.037 367.541L129.331 365.261L55.3432 368.482L1.00049 374.213" stroke="white" stroke-opacity="0.36" stroke-width="1.08501" stroke-linecap="round" stroke-linejoin="round"/>
<path d="M1821.72 1H1V1026.79H1821.72V1Z" stroke="white" stroke-opacity="0.36" stroke-width="1.08501" stroke-linecap="round" stroke-linejoin="round"/>
</svg>
