<svg width="124" height="24" viewBox="0 0 124 24" fill="none" xmlns="http://www.w3.org/2000/svg">
<path d="M18.529 11.4534C16.4448 10.0366 13.775 10.6143 12.3739 12.7451C11.2035 14.5249 9.43677 14.7461 8.75196 14.7461C6.52259 14.7461 4.99618 13.1776 4.54416 11.5541H4.54319C4.53859 11.5381 4.53569 11.5251 4.53085 11.5091C4.52674 11.4907 4.52093 11.4733 4.51657 11.4539C4.33872 10.7769 4.29516 10.4531 4.29516 9.73368C4.29516 5.85207 8.27696 1.53029 14.0131 1.53029C19.8862 1.53029 23.2466 6.00186 24.1127 8.48676C24.0979 8.4432 24.0846 8.3994 24.0691 8.35464C22.4021 3.49445 17.7931 5.33859e-06 12.3674 5.33859e-06C5.53846 5.33859e-06 0 5.53628 0 12.3674C0 18.4728 4.40381 23.6989 10.5114 23.6989C15.3837 23.6989 18.6577 20.9672 20.1594 17.2034C20.9839 15.1446 20.4 12.7243 18.529 11.4534Z" fill="black"/>
<path d="M24.1899 8.72786C23.4678 6.30418 20.0818 1.53038 14.0129 1.53038C8.27672 1.53038 4.29492 5.85192 4.29492 9.73353C4.29492 10.4532 4.33872 10.777 4.51633 11.454C4.44205 11.1581 4.4026 10.8607 4.4026 10.5715C4.4026 6.52946 8.45022 3.72854 12.6106 3.72854C18.2429 3.72854 22.8084 8.29423 22.8084 13.9254C22.8084 18.3406 20.2676 22.1612 16.5759 23.9973L16.5774 24C21.3357 22.2769 24.7338 17.7194 24.7338 12.3675C24.7338 11.101 24.5637 9.98398 24.1899 8.72786Z" fill="black"/>
<path d="M41.0017 17.4521H39.7475V7.44092H41.0017V11.6608H42.29V12.8395H41.0017V17.4521ZM37.1147 14.175V9.09074H32.8094V7.9907H38.3462V14.175H37.1147ZM38.979 15.3421V16.4533H32.4365V15.3421H34.4931V12.0536H35.7359V15.3421H38.979Z" fill="black"/>
<path d="M50.9716 13.4754H49.7286V7.43726H50.9716V9.78302H52.4179V11.0062H50.9716V13.4754ZM46.7229 11.4551C46.7229 11.156 46.6116 10.8995 46.3895 10.6866C46.1673 10.4732 45.9016 10.3664 45.5929 10.3664C45.2839 10.3664 45.0203 10.4732 44.8018 10.6866C44.5833 10.8995 44.4742 11.156 44.4742 11.4551C44.4742 11.7547 44.5833 12.0126 44.8018 12.2297C45.0203 12.4467 45.2839 12.5552 45.5929 12.5552C45.9016 12.5552 46.1673 12.4467 46.3895 12.2297C46.6116 12.0126 46.7229 11.7547 46.7229 11.4551ZM47.9207 11.4665C47.9207 11.7581 47.8585 12.0351 47.7341 12.297C47.6098 12.559 47.4462 12.787 47.2427 12.9815C47.0242 13.1686 46.7754 13.3201 46.4969 13.4362C46.2181 13.5521 45.9166 13.6102 45.5929 13.6102C45.2688 13.6102 44.9659 13.5521 44.6833 13.4362C44.4009 13.3201 44.154 13.1686 43.943 12.9815C43.7323 12.787 43.5646 12.559 43.4402 12.297C43.3161 12.0351 43.2539 11.7581 43.2539 11.4665C43.2539 11.1747 43.3161 10.8995 43.4402 10.6416C43.5646 10.3834 43.7323 10.1571 43.943 9.96233C44.154 9.77552 44.4009 9.62404 44.6833 9.50789C44.9659 9.39198 45.2688 9.33415 45.5929 9.33415C45.9166 9.33415 46.2181 9.39198 46.4969 9.50789C46.7754 9.62404 47.0242 9.77552 47.2427 9.96233C47.4462 10.1571 47.6098 10.3834 47.7341 10.6416C47.8585 10.8995 47.9207 11.1747 47.9207 11.4665ZM43.0392 14.0366H50.9716V17.3587H49.7286V15.1364H43.0392V14.0366ZM48.4969 8.06593V9.14323H42.6211V8.06593H44.9262V7.23521H46.2481V8.06593H48.4969Z" fill="black"/>
<path d="M60.5908 7.43716H61.8449V17.4484H60.5908V7.43716ZM58.0708 16.1352H56.8166V9.177H52.9521V8.05445H58.0708V16.1352Z" fill="black"/>
<path d="M67.8483 8.61551L64.3229 11.0958L63.5771 10.2317L67.8483 7.24638L72.1195 10.2317L71.3737 11.0958L67.8483 8.61551ZM67.2155 13.1161V12.3415H63.2153V11.3204H72.4813V12.3415H68.4697V13.1161H71.7355V15.6526H65.1928V16.2587H71.871V17.2801H63.9611V14.6762H70.4924V14.1039H63.9611V13.1161H67.2155Z" fill="black"/>
<path d="M81.0044 12.7459V10.5799H79.1286V9.50238H81.0044V7.43732H82.2586V12.7459H81.0044ZM80.1681 15.3048C80.1681 14.9307 80.0307 14.6089 79.7558 14.3396C79.4807 14.0703 79.1513 13.9355 78.7671 13.9355C78.3903 13.9355 78.0665 14.0703 77.7953 14.3396C77.524 14.6089 77.3885 14.9307 77.3885 15.3048C77.3885 15.6862 77.524 16.01 77.7953 16.2757C78.0665 16.5411 78.3903 16.674 78.7671 16.674C79.1513 16.674 79.4807 16.5411 79.7558 16.2757C80.0307 16.01 80.1681 15.6862 80.1681 15.3048ZM81.3998 15.316C81.3998 15.6528 81.3301 15.9688 81.191 16.2643C81.0514 16.56 80.8648 16.8199 80.6315 17.0444C80.398 17.2688 80.1212 17.4466 79.8011 17.5775C79.4807 17.7084 79.14 17.7738 78.7784 17.7738C78.4242 17.7738 78.0852 17.7084 77.7614 17.5775C77.4374 17.4466 77.1586 17.2688 76.9251 17.0444C76.6916 16.8199 76.505 16.56 76.3659 16.2643C76.2263 15.9688 76.1568 15.6528 76.1568 15.316C76.1568 14.9791 76.2263 14.6634 76.3659 14.3677C76.505 14.0719 76.6916 13.8121 76.9251 13.5877C77.1586 13.3632 77.4374 13.1853 77.7614 13.0544C78.0852 12.9235 78.4242 12.8582 78.7784 12.8582C79.14 12.8582 79.4807 12.9235 79.8011 13.0544C80.1212 13.1853 80.398 13.3632 80.6315 13.5877C80.8648 13.8121 81.0514 14.0719 81.191 14.3677C81.3301 14.6634 81.3998 14.9791 81.3998 15.316ZM73.3883 8.79531V7.72915H79.1738V8.79531H76.7105L79.2755 11.904L78.4056 12.6222L76.3262 10.0522L74.281 12.7909L73.377 12.0725L75.9422 8.79531H73.3883Z" fill="black"/>
<path d="M90.9065 10.4789H85.6069V12.4992H90.9065V10.4789ZM90.9065 9.40132V7.86377H92.1495V13.5876H88.8838V15.6079H92.8953V16.7077H83.6294V15.6079H87.6296V13.5876H84.3752V7.86377H85.6069V9.40132H90.9065Z" fill="black"/>
<path d="M99.6897 15.6751C99.6897 15.346 99.569 15.0653 99.3279 14.8333C99.0869 14.6014 98.8007 14.4853 98.4694 14.4853C98.1376 14.4853 97.8497 14.6014 97.6048 14.8333C97.3599 15.0653 97.2377 15.346 97.2377 15.6751C97.2377 16.0044 97.3599 16.2866 97.6048 16.5225C97.8497 16.7582 98.1376 16.8761 98.4694 16.8761C98.8007 16.8761 99.0869 16.7582 99.3279 16.5225C99.569 16.2866 99.6897 16.0044 99.6897 15.6751ZM100.933 15.6862C100.933 15.9856 100.871 16.2682 100.746 16.5337C100.622 16.7994 100.45 17.0331 100.232 17.2352C99.9985 17.437 99.733 17.5979 99.4354 17.7177C99.1377 17.8374 98.8157 17.8975 98.4694 17.8975C98.1304 17.8975 97.81 17.8374 97.5087 17.7177C97.2075 17.5979 96.9437 17.437 96.7177 17.2352C96.4919 17.0331 96.3167 16.7994 96.1924 16.5337C96.068 16.2682 96.0058 15.9856 96.0058 15.6862C96.0058 15.3794 96.068 15.0953 96.1924 14.8333C96.3167 14.5714 96.4919 14.3357 96.7177 14.1264C96.9437 13.9244 97.2075 13.7652 97.5087 13.6492C97.81 13.5333 98.1304 13.4753 98.4694 13.4753C98.8157 13.4753 99.1377 13.5333 99.4354 13.6492C99.733 13.7652 99.9985 13.9244 100.232 14.1264C100.45 14.3357 100.622 14.5714 100.746 14.8333C100.871 15.0953 100.933 15.3794 100.933 15.6862ZM94.5822 11.6011V7.53826H102.345V8.54829H95.825V9.07581H102.3V10.0522H95.825V10.6134H102.379V11.6011H99.0908V12.2409H103.102V13.2621H93.8364V12.2409H97.8364V11.6011H94.5822Z" fill="black"/>
<path d="M111.625 7.43707H112.88V13.8454H111.625V7.43707ZM104.71 17.2462V13.9018H105.953V16.1464H112.97V17.2462H104.71ZM107.072 7.38117L110.247 12.4877L109.23 13.1161L107.072 9.52464L104.925 13.1948L103.885 12.5661L107.072 7.38117Z" fill="black"/>
<path d="M121.527 9.95134H116.227V11.3318H121.527V9.95134ZM116.227 8.8738H121.527V7.60558H122.77V12.4205H114.996V7.60558H116.227V8.8738ZM114.25 13.7671H123.516V14.8669H119.504V17.4484H118.25V14.8669H114.25V13.7671Z" fill="black"/>
</svg>
