<svg width="124" height="24" viewBox="0 0 124 24" fill="none" xmlns="http://www.w3.org/2000/svg">
<path d="M18.529 11.4534C16.4448 10.0366 13.775 10.6143 12.3739 12.7451C11.2035 14.5249 9.43677 14.7461 8.75196 14.7461C6.52259 14.7461 4.99618 13.1776 4.54416 11.5541H4.54319C4.53859 11.5381 4.53569 11.5251 4.53085 11.5091C4.52674 11.4907 4.52093 11.4733 4.51657 11.4539C4.33872 10.7769 4.29516 10.4531 4.29516 9.73368C4.29516 5.85207 8.27695 1.53029 14.0131 1.53029C19.8862 1.53029 23.2466 6.00186 24.1127 8.48676C24.0979 8.4432 24.0846 8.3994 24.0691 8.35463C22.4021 3.49445 17.7931 3.8147e-06 12.3674 3.8147e-06C5.53846 3.8147e-06 0 5.53628 0 12.3674C0 18.4728 4.40381 23.6989 10.5114 23.6989C15.3837 23.6989 18.6577 20.9672 20.1594 17.2034C20.9839 15.1446 20.4 12.7243 18.529 11.4534Z" fill="white"/>
<path d="M24.19 8.72786C23.4679 6.30418 20.0819 1.53038 14.013 1.53038C8.27684 1.53038 4.29504 5.85192 4.29504 9.73353C4.29504 10.4532 4.33884 10.777 4.51646 11.454C4.44217 11.1581 4.40273 10.8607 4.40273 10.5715C4.40273 6.52946 8.45034 3.72854 12.6107 3.72854C18.2431 3.72854 22.8085 8.29423 22.8085 13.9254C22.8085 18.3406 20.2677 22.1612 16.5761 23.9973L16.5775 24C21.3358 22.2769 24.734 17.7194 24.734 12.3675C24.734 11.101 24.5638 9.98398 24.19 8.72786Z" fill="white"/>
<path d="M41.0018 17.4521H39.7476V7.44092H41.0018V11.6608H42.2901V12.8395H41.0018V17.4521ZM37.1149 14.175V9.09074H32.8095V7.9907H38.3463V14.175H37.1149ZM38.9791 15.3421V16.4533H32.4366V15.3421H34.4932V12.0536H35.7361V15.3421H38.9791Z" fill="white"/>
<path d="M50.9714 13.4753H49.7283V7.43715H50.9714V9.78292H52.4177V11.0061H50.9714V13.4753ZM46.7227 11.455C46.7227 11.1559 46.6114 10.8994 46.3892 10.6865C46.1671 10.473 45.9014 10.3663 45.5926 10.3663C45.2836 10.3663 45.0201 10.473 44.8016 10.6865C44.5831 10.8994 44.4739 11.1559 44.4739 11.455C44.4739 11.7546 44.5831 12.0125 44.8016 12.2296C45.0201 12.4466 45.2836 12.555 45.5926 12.555C45.9014 12.555 46.1671 12.4466 46.3892 12.2296C46.6114 12.0125 46.7227 11.7546 46.7227 11.455ZM47.9205 11.4664C47.9205 11.758 47.8583 12.035 47.7339 12.2969C47.6095 12.5589 47.4459 12.7869 47.2424 12.9814C47.0239 13.1685 46.7752 13.32 46.4967 13.4361C46.2179 13.552 45.9164 13.6101 45.5926 13.6101C45.2686 13.6101 44.9656 13.552 44.683 13.4361C44.4006 13.32 44.1538 13.1685 43.9428 12.9814C43.732 12.7869 43.5643 12.5589 43.44 12.2969C43.3158 12.035 43.2536 11.758 43.2536 11.4664C43.2536 11.1745 43.3158 10.8994 43.44 10.6415C43.5643 10.3833 43.732 10.157 43.9428 9.96222C44.1538 9.77542 44.4006 9.62394 44.683 9.50778C44.9656 9.39188 45.2686 9.33404 45.5926 9.33404C45.9164 9.33404 46.2179 9.39188 46.4967 9.50778C46.7752 9.62394 47.0239 9.77542 47.2424 9.96222C47.4459 10.157 47.6095 10.3833 47.7339 10.6415C47.8583 10.8994 47.9205 11.1745 47.9205 11.4664ZM43.039 14.0365H50.9714V17.3586H49.7283V15.1363H43.039V14.0365ZM48.4966 8.06582V9.14312H42.6208V8.06582H44.926V7.2351H46.2479V8.06582H48.4966Z" fill="white"/>
<path d="M60.5908 7.4371H61.8449V17.4483H60.5908V7.4371ZM58.0708 16.1351H56.8166V9.17694H52.9521V8.05439H58.0708V16.1351Z" fill="white"/>
<path d="M67.8484 8.6156L64.323 11.0959L63.5772 10.2318L67.8484 7.24648L72.1196 10.2318L71.3738 11.0959L67.8484 8.6156ZM67.2156 13.1162V12.3416H63.2155V11.3205H72.4814V12.3416H68.4698V13.1162H71.7356V15.6526H65.1929V16.2588H71.8711V17.2802H63.9612V14.6763H70.4925V14.104H63.9612V13.1162H67.2156Z" fill="white"/>
<path d="M81.0046 12.7458V10.5798H79.1287V9.50229H81.0046V7.43723H82.2587V12.7458H81.0046ZM80.1683 15.3048C80.1683 14.9306 80.0308 14.6088 79.7559 14.3395C79.4808 14.0702 79.1515 13.9354 78.7672 13.9354C78.3904 13.9354 78.0667 14.0702 77.7954 14.3395C77.5241 14.6088 77.3886 14.9306 77.3886 15.3048C77.3886 15.6861 77.5241 16.0099 77.7954 16.2756C78.0667 16.541 78.3904 16.6739 78.7672 16.6739C79.1515 16.6739 79.4808 16.541 79.7559 16.2756C80.0308 16.0099 80.1683 15.6861 80.1683 15.3048ZM81.4 15.3159C81.4 15.6527 81.3303 15.9687 81.1911 16.2642C81.0515 16.5599 80.8649 16.8198 80.6317 17.0444C80.3981 17.2687 80.1213 17.4465 79.8012 17.5774C79.4808 17.7083 79.1401 17.7737 78.7786 17.7737C78.4243 17.7737 78.0853 17.7083 77.7615 17.5774C77.4375 17.4465 77.1588 17.2687 76.9252 17.0444C76.6917 16.8198 76.5052 16.5599 76.366 16.2642C76.2264 15.9687 76.157 15.6527 76.157 15.3159C76.157 14.979 76.2264 14.6633 76.366 14.3676C76.5052 14.0719 76.6917 13.812 76.9252 13.5877C77.1588 13.3631 77.4375 13.1852 77.7615 13.0543C78.0853 12.9234 78.4243 12.8581 78.7786 12.8581C79.1401 12.8581 79.4808 12.9234 79.8012 13.0543C80.1213 13.1852 80.3981 13.3631 80.6317 13.5877C80.8649 13.812 81.0515 14.0719 81.1911 14.3676C81.3303 14.6633 81.4 14.979 81.4 15.3159ZM73.3884 8.79522V7.72905H79.174V8.79522H76.7106L79.2756 11.904L78.4057 12.6222L76.3263 10.0521L74.2811 12.7908L73.3771 12.0724L75.9423 8.79522H73.3884Z" fill="white"/>
<path d="M90.9064 10.4788H85.6067V12.4991H90.9064V10.4788ZM90.9064 9.40124V7.86369H92.1494V13.5875H88.8836V15.6078H92.8952V16.7076H83.6293V15.6078H87.6295V13.5875H84.3751V7.86369H85.6067V9.40124H90.9064Z" fill="white"/>
<path d="M99.6896 15.6751C99.6896 15.346 99.5688 15.0653 99.3278 14.8333C99.0868 14.6014 98.8005 14.4853 98.4693 14.4853C98.1375 14.4853 97.8496 14.6014 97.6047 14.8333C97.3598 15.0653 97.2376 15.346 97.2376 15.6751C97.2376 16.0044 97.3598 16.2866 97.6047 16.5225C97.8496 16.7582 98.1375 16.8761 98.4693 16.8761C98.8005 16.8761 99.0868 16.7582 99.3278 16.5225C99.5688 16.2866 99.6896 16.0044 99.6896 15.6751ZM100.933 15.6862C100.933 15.9856 100.87 16.2682 100.746 16.5337C100.622 16.7994 100.45 17.0331 100.232 17.2352C99.9983 17.437 99.7329 17.5979 99.4353 17.7177C99.1376 17.8374 98.8155 17.8975 98.4693 17.8975C98.1303 17.8975 97.8099 17.8374 97.5086 17.7177C97.2073 17.5979 96.9436 17.437 96.7176 17.2352C96.4918 17.0331 96.3166 16.7994 96.1922 16.5337C96.0679 16.2682 96.0057 15.9856 96.0057 15.6862C96.0057 15.3794 96.0679 15.0953 96.1922 14.8333C96.3166 14.5714 96.4918 14.3357 96.7176 14.1264C96.9436 13.9244 97.2073 13.7652 97.5086 13.6492C97.8099 13.5333 98.1303 13.4753 98.4693 13.4753C98.8155 13.4753 99.1376 13.5333 99.4353 13.6492C99.7329 13.7652 99.9983 13.9244 100.232 14.1264C100.45 14.3357 100.622 14.5714 100.746 14.8333C100.87 15.0953 100.933 15.3794 100.933 15.6862ZM94.5821 11.6011V7.53826H102.345V8.54829H95.8249V9.07581H102.3V10.0522H95.8249V10.6134H102.379V11.6011H99.0907V12.2409H103.102V13.2621H93.8363V12.2409H97.8362V11.6011H94.5821Z" fill="white"/>
<path d="M111.625 7.4371H112.88V13.8455H111.625V7.4371ZM104.71 17.2463V13.9019H105.953V16.1465H112.97V17.2463H104.71ZM107.072 7.3812L110.247 12.4877L109.23 13.1161L107.072 9.52467L104.925 13.1948L103.885 12.5661L107.072 7.3812Z" fill="white"/>
<path d="M121.527 9.95128H116.227V11.3318H121.527V9.95128ZM116.227 8.87374H121.527V7.60552H122.77V12.4205H114.996V7.60552H116.227V8.87374ZM114.25 13.7671H123.516V14.8669H119.504V17.4483H118.25V14.8669H114.25V13.7671Z" fill="white"/>
</svg>
