<svg width="85" height="24" viewBox="0 0 85 24" fill="none" xmlns="http://www.w3.org/2000/svg">
<path d="M40.0864 14.8146H44.0232V0.000212318H40.0864V14.8146Z" fill="black"/>
<path d="M61.1318 -2.0273e-05V3.08546H66.0852V14.8143H70.0214V3.08546H74.975V-2.0273e-05H61.1318Z" fill="black"/>
<path d="M55.6478 5.86437H52.3568C51.4827 5.86437 50.774 5.50332 50.774 4.47489C50.774 3.44501 51.4827 3.08542 52.3568 3.08542H59.4329V-6.23401e-05H51.8896C49.0736 -6.23401e-05 46.7905 1.6254 46.7905 4.47489C46.7905 7.32564 49.0736 8.94902 51.8896 8.94902H55.2753C56.1487 8.94902 56.8573 9.31028 56.8573 10.3389C56.8573 11.3686 56.1487 11.7278 55.2753 11.7278H47.3372V14.8143H55.6478C58.4638 14.8143 60.7461 13.193 60.7461 10.3418C60.7461 7.49337 58.4638 5.86437 55.6478 5.86437Z" fill="black"/>
<path d="M28.099 -0.000172507L22.5305 13.3313L17.2215 7.4069L23.8598 -0.000172507H19.363L13.0722 7.03253V-0.000172507H9.13477V14.8142H13.0722V7.78168L19.363 14.8142H25.9125L30.422 3.64197L33.696 11.8565H28.4911L29.727 14.8142H38.9335L32.744 -0.000172507H28.099Z" fill="black"/>
<path d="M0 21.0373C13.7376 22.9891 27.7781 24 42.0549 24C56.3324 24 70.3726 22.9891 84.1104 21.0373C70.3726 19.0849 56.3324 18.074 42.0549 18.074C27.7781 18.074 13.7376 19.0849 0 21.0373Z" fill="black"/>
</svg>
