<svg width="85" height="24" viewBox="0 0 85 24" fill="none" xmlns="http://www.w3.org/2000/svg">
<path d="M40.0869 14.8145H44.0237V0.000166893H40.0869V14.8145Z" fill="white"/>
<path d="M61.1318 1.14441e-05V3.08549H66.0852V14.8144H70.0214V3.08549H74.975V1.14441e-05H61.1318Z" fill="white"/>
<path d="M55.6475 5.86448H52.3564C51.4824 5.86448 50.7736 5.50343 50.7736 4.475C50.7736 3.44512 51.4824 3.08553 52.3564 3.08553H59.4326V4.48227e-05H51.8892C49.0732 4.48227e-05 46.7902 1.6255 46.7902 4.475C46.7902 7.32575 49.0732 8.94913 51.8892 8.94913H55.275C56.1484 8.94913 56.8569 9.31039 56.8569 10.339C56.8569 11.3687 56.1484 11.7279 55.275 11.7279H47.3368V14.8144H55.6475C58.4635 14.8144 60.7457 13.1931 60.7457 10.3419C60.7457 7.49347 58.4635 5.86448 55.6475 5.86448Z" fill="white"/>
<path d="M28.099 -0.000109673L22.5305 13.3313L17.2215 7.40696L23.8598 -0.000109673H19.363L13.0722 7.03259V-0.000109673H9.13477V14.8142H13.0722V7.78175L19.363 14.8142H25.9125L30.422 3.64204L33.696 11.8565H28.4911L29.727 14.8142H38.9335L32.744 -0.000109673H28.099Z" fill="white"/>
<path d="M0 21.0373C13.7376 22.9891 27.7781 24 42.0549 24C56.3324 24 70.3726 22.9891 84.1104 21.0373C70.3726 19.0849 56.3324 18.074 42.0549 18.074C27.7781 18.074 13.7376 19.0849 0 21.0373Z" fill="white"/>
</svg>
