<svg width="114" height="30" viewBox="0 0 114 30" fill="none" xmlns="http://www.w3.org/2000/svg">
<path d="M37.7264 25.1174L38.0185 25.1179V5.92106H31.6855L37.7264 25.1174Z" fill="black"/>
<path d="M34.9983 25.1103L31.4398 13.8056L27.8877 25.0918L34.9983 25.1103Z" fill="black"/>
<path d="M12.1239 15.0394C12.1239 6.98778 15.0748 0.430214 18.7617 0.166963C18.3991 0.0588715 18.0279 0 17.6497 0C15.1412 0 12.9207 2.46368 11.5589 6.24684H10.501L4.81216 13.787L11.4287 23.7545H7.53882L2.21183 15.7306V23.7545H0V25.4048H12.2477C13.6123 28.2368 15.528 30 17.6497 30C17.9137 30 18.5514 29.972 18.8892 29.9186C15.1432 29.7996 12.1239 23.184 12.1239 15.0394Z" fill="black"/>
<path d="M2.21191 6.24687V11.9825L6.53901 6.24687H2.21191Z" fill="black"/>
<path d="M20.1293 11.8159C19.6026 11.4811 18.9438 10.8756 18.8751 10.2208C18.765 9.17783 20.1749 8.63698 20.996 8.63417C21.392 8.63279 21.7878 8.65817 22.1821 8.89487C22.1829 8.89542 22.6768 9.11373 24.0895 10.3802C24.3271 11.6658 24.4747 13.0448 24.5127 14.4859L24.4981 14.474C24.4981 14.474 20.3467 11.9543 20.1293 11.8159ZM19.5452 1.34223C19.3205 1.34223 19.0992 1.37173 18.8811 1.42726C18.6643 1.50276 18.4515 1.60267 18.2421 1.72806C19.856 1.84272 21.3204 3.17909 22.4288 5.30415C22.1739 5.25507 21.8665 5.21149 21.4974 5.18453C21.4974 5.18453 18.2349 4.81614 15.9713 7.36846C15.9713 7.36846 13.4188 10.342 16.3928 13.4214C16.3928 13.4214 17.6032 14.6055 19.5499 15.6844C19.5499 15.6844 22.6163 17.6184 23.2876 18.395C23.2876 18.395 24.4714 19.4473 23.4452 20.6586C23.4452 20.6586 22.2085 22.1055 20.0762 21.6317C20.0762 21.6317 18.4913 21.5074 16.7083 18.6579L13.3398 20.3422C13.3398 20.3422 14.9451 22.6854 15.3399 22.895C15.3399 22.895 17.1294 25 20.4455 25.1321C20.4455 25.1321 21.5028 25.1701 22.489 25.0401C21.5067 26.9718 20.2343 28.2737 18.822 28.6368C19.0588 28.7026 19.2997 28.7368 19.5452 28.7368C22.8365 28.7368 25.5056 22.6044 25.5056 15.0395C25.5056 7.47481 22.8365 1.34223 19.5452 1.34223Z" fill="black"/>
<path d="M25.6087 22.882L30.9466 5.92124H25.0269C26.872 11.129 26.603 16.1846 26.603 16.1846C26.4462 19.0122 26.0626 21.2042 25.6087 22.882Z" fill="black"/>
<path d="M49.9172 15.1436V18.9344H48.5029V11.3878H49.9172V13.9362H50.8594V15.1436H49.9172ZM46.3089 14.2687C46.0954 14.0623 45.8446 13.9582 45.559 13.9582C45.2732 13.9582 45.0266 14.0623 44.8201 14.2687C44.6118 14.4764 44.5087 14.7299 44.5087 15.0288C44.5087 15.3143 44.6118 15.5648 44.8201 15.7792C45.0266 15.9929 45.2732 16.0999 45.559 16.0999C45.8446 16.0999 46.0954 15.9929 46.3089 15.7792C46.5235 15.5648 46.631 15.3143 46.631 15.0288C46.631 14.7299 46.5235 14.4764 46.3089 14.2687ZM43.6352 21.0511V17.6808H45.0493V19.845H50.1685V21.0511H43.6352ZM42.8589 13.0633V11.8564H44.8623V11.192H46.2773V11.8564H48.2382V13.0633H46.8314C47.2002 13.2613 47.4944 13.5346 47.7152 13.8799C47.9356 14.2267 48.0451 14.6054 48.0451 15.015C48.0451 15.6512 47.8031 16.1926 47.3193 16.6379C46.8362 17.0841 46.2526 17.3063 45.57 17.3063C44.8866 17.3063 44.303 17.0841 43.8196 16.6379C43.336 16.1926 43.0948 15.6512 43.0948 15.015C43.0948 14.6054 43.2077 14.2267 43.4346 13.8799C43.6623 13.5346 43.9533 13.2613 44.3086 13.0633H42.8589Z" fill="black"/>
<path d="M56.4793 15.9145V17.2884H58.9345V21.0435H57.5202V18.495H52.3665V17.2884H55.0653V15.9145H51.917V14.708H57.5202V12.5863H52.4011V11.3799H58.9345V14.708H59.6193V15.9145H56.4793Z" fill="black"/>
<path d="M64.3637 16.8321V12.6123H60.8941V11.4063H65.7783V16.8321H64.3637ZM66.4858 11.4011H67.9004V14.4847H68.8429V15.6912H67.9004V21.0002H66.4858V18.6866H60.6841V17.4804H62.0549V13.9678H63.4695V17.4804H66.4858V11.4011Z" fill="black"/>
<path d="M76.9272 14.9557V17.0327H75.5132V11.3931H76.9272V13.7496H77.8697V14.9557H76.9272ZM73.3018 14.1051C73.1038 13.9127 72.8697 13.8161 72.6004 13.8161C72.3314 13.8161 72.0978 13.9127 71.8996 14.1051C71.7011 14.2985 71.6024 14.5376 71.6024 14.8226C71.6024 15.0938 71.7011 15.3336 71.8996 15.5397C72.0978 15.7468 72.3314 15.8504 72.6004 15.8504C72.8697 15.8504 73.1038 15.7468 73.3018 15.5397C73.5 15.3336 73.599 15.0938 73.599 14.8226C73.599 14.5376 73.5 14.2985 73.3018 14.1051ZM75.5132 21.0387V18.5757H70.4367V17.3698H76.9272V21.0387H75.5132ZM69.8877 13.0216V11.8149H71.9143V11.1508H73.3289V11.8149H75.2922V13.0216H74.0753C74.3599 13.221 74.5871 13.4731 74.7574 13.7799C74.9285 14.0864 75.0138 14.4239 75.0138 14.7941C75.0138 15.4064 74.7815 15.936 74.3167 16.3844C73.8519 16.8327 73.2833 17.0578 72.6111 17.0578C71.9398 17.0578 71.3674 16.8327 70.8954 16.3844C70.4233 15.936 70.1873 15.4064 70.1873 14.7941C70.1873 14.4239 70.275 14.0864 70.4501 13.7799C70.625 13.4731 70.8648 13.221 71.1711 13.0216H69.8877Z" fill="black"/>
<path d="M84.7081 14.3128V13.2523H83.9161C83.9306 13.3231 83.941 13.4046 83.9486 13.4969C83.9555 13.5876 83.959 13.6763 83.959 13.7616C83.959 13.8607 83.9555 13.9561 83.9486 14.048C83.9411 14.1398 83.9236 14.2283 83.8949 14.3128H84.7081ZM83.8912 18.0626C83.638 17.8236 83.3448 17.7041 83.0122 17.7041C82.6507 17.7041 82.3503 17.8236 82.1113 18.0626C81.8734 18.3009 81.7538 18.6008 81.7538 18.9623C81.7538 19.3239 81.8734 19.6251 82.1113 19.8635C82.3503 20.1011 82.6507 20.2216 83.0122 20.2216C83.3448 20.2216 83.638 20.1011 83.8912 19.8635C84.1441 19.6251 84.2704 19.3239 84.2704 18.9623C84.2704 18.6008 84.1441 18.3009 83.8912 18.0626ZM84.901 20.6948C84.3772 21.1831 83.7474 21.4277 83.0122 21.4277C82.2771 21.4277 81.647 21.1831 81.1245 20.6948C80.601 20.2053 80.3392 19.6285 80.3392 18.9623C80.3392 18.2821 80.601 17.7016 81.1245 17.22C81.647 16.7381 82.2771 16.4974 83.0122 16.4974C83.7474 16.4974 84.3772 16.7381 84.901 17.22C85.4237 17.7016 85.686 18.2821 85.686 18.9623C85.686 19.6285 85.4237 20.2053 84.901 20.6948ZM82.1969 12.8574C81.9643 12.6207 81.6811 12.5037 81.3474 12.5037C81.0277 12.5037 80.7531 12.6207 80.5213 12.8574C80.2882 13.0928 80.1734 13.3805 80.1734 13.7191C80.1734 14.0446 80.2882 14.3309 80.5213 14.582C80.7531 14.8332 81.0277 14.958 81.3474 14.958C81.6811 14.958 81.9643 14.8332 82.1969 14.582C82.4286 14.3309 82.5442 14.0446 82.5442 13.7191C82.5442 13.3805 82.4286 13.0928 82.1969 12.8574ZM83.6417 12.0449H84.7081V11.2963H86.1227V17.0187H84.7081V15.5194H83.6417V14.9623C83.4143 15.3196 83.0978 15.6098 82.6922 15.8312C82.287 16.0541 81.8428 16.1644 81.36 16.1644C80.635 16.1644 80.02 15.9245 79.515 15.4452C79.0102 14.965 78.7578 14.3934 78.7578 13.7305C78.7578 13.0536 79.0102 12.4782 79.515 12.0064C80.02 11.533 80.635 11.2963 81.36 11.2963C81.8428 11.2963 82.287 11.4117 82.6922 11.6386C83.0978 11.8675 83.4143 12.1667 83.6417 12.538V12.0449Z" fill="black"/>
<path d="M90.8938 17.5004L89.822 14.3064L88.773 17.5004H87.3169L89.0093 12.5863H87.7023V11.3799H91.9648V12.5863H90.6572L92.2853 17.3198V11.3799H93.7001V13.9588H94.0118V11.3799H95.4269V21.0345H94.0118V15.1662H93.7001V21.0345H92.2853V17.5004H90.8938Z" fill="black"/>
<path d="M103.914 14.9557V17.0327H102.5V11.3931H103.914V13.7496H104.857V14.9557H103.914ZM100.289 14.1051C100.091 13.9127 99.8571 13.8161 99.5878 13.8161C99.3187 13.8161 99.0846 13.9127 98.8867 14.1051C98.6879 14.2985 98.5889 14.5376 98.5889 14.8226C98.5889 15.0938 98.6879 15.3336 98.8867 15.5397C99.0846 15.7468 99.3187 15.8504 99.5878 15.8504C99.8571 15.8504 100.091 15.7468 100.289 15.5397C100.487 15.3336 100.587 15.0938 100.587 14.8226C100.587 14.5376 100.487 14.2985 100.289 14.1051ZM102.5 21.0387V18.5757H97.4241V17.3698H103.914V21.0387H102.5ZM96.8745 13.0216V11.8149H98.9014V11.1508H100.316V11.8149H102.28V13.0216H101.062C101.347 13.221 101.574 13.4731 101.744 13.7799C101.915 14.0864 102.001 14.4239 102.001 14.7941C102.001 15.4064 101.768 15.936 101.304 16.3844C100.839 16.8327 100.271 17.0578 99.5988 17.0578C98.9266 17.0578 98.3542 16.8327 97.8822 16.3844C97.4096 15.936 97.1741 15.4064 97.1741 14.7941C97.1741 14.4239 97.2621 14.0864 97.437 13.7799C97.6121 13.4731 97.8516 13.221 98.1579 13.0216H96.8745Z" fill="black"/>
<path d="M111.707 17.6202V12.5863H106.289V11.3799H113.122V17.6202H111.707ZM105.849 19.8261V18.6193H107.005V14.678H108.42V18.6193H109.336V14.678H110.75V18.6193H113.578V19.8261H105.849Z" fill="black"/>
<path d="M60.9359 7.23778H59.1451V7.80867H60.9359V7.23778ZM58.5861 8.1823V6.39545H59.1451V6.86429H60.9359V6.39545H61.4954V8.1823H58.5861ZM60.3255 8.93638V10.1661H59.7665V8.93638H58.2524V8.56222H61.8393V8.93638H60.3255Z" fill="black"/>
<path d="M65.0292 8.19176V7.34353H64.3616V6.97018H65.0292V6.40089H65.5881V8.19176H65.0292ZM62.5648 10.1692V9.09805H65.0292V8.77392H62.5648V8.40043H65.5881V9.47154H63.1238V9.79568H65.7034V10.1692H62.5648ZM64.1722 8.19176L63.415 6.92834L62.6584 8.19176H62.0713L63.1066 6.40089H63.7149L64.7502 8.19176H64.1722Z" fill="black"/>
<path d="M49.7461 10.1295H50.7066V6.43966H49.7461V10.1295Z" fill="black"/>
<path d="M56.8523 6.44135H54.0425L54.0457 7.2409H54.9616V10.1365L55.9336 10.1332V7.2409H56.8523L56.8523 6.44135Z" fill="black"/>
<path d="M48.4432 6.38927H48.0878H47.4827H47.1276L46.0459 9.41848L45.1522 8.22882L46.4957 6.43956H45.5356L44.4615 7.86968V6.43956H43.5015V10.1294H44.4615V8.58782L45.6209 10.1307H45.7916H46.5812H46.7515L47.7584 7.31126L48.3635 9.33641H47.4596V10.136H48.9598V10.1307H49.5616L48.4432 6.38927Z" fill="black"/>
<path d="M53.0644 7.81253L53.0631 7.8106H51.9293V7.23609H53.8167V6.43668H52.138L52.1372 6.43778C51.538 6.43778 51.0522 6.92379 51.0522 7.52298C51.0522 8.11264 51.5227 8.59127 52.1085 8.6071L52.1093 8.60993H53.3366V9.33639H51.1646V10.1359H53.0853L53.0867 10.134C53.713 10.1154 54.2145 9.60348 54.2145 8.97398C54.2145 8.3359 53.7006 7.81897 53.0644 7.81253Z" fill="black"/>
<path d="M43.6758 22.2247H43.93V23.1903L44.9696 22.2247H45.3103L44.0679 23.3784L45.4033 24.7927H45.0557L43.93 23.6004V24.7927H43.6758V22.2247Z" fill="black"/>
<path d="M47.1293 22.4109C46.9384 22.4109 46.7579 22.4604 46.5867 22.5591C46.4162 22.6583 46.2826 22.7915 46.1866 22.9588C46.0905 23.1265 46.0428 23.3132 46.0428 23.5193C46.0428 23.8242 46.149 24.0816 46.3614 24.2917C46.5739 24.5017 46.8295 24.6066 47.1293 24.6066C47.3294 24.6066 47.5145 24.5583 47.6845 24.4616C47.8546 24.3654 47.9876 24.2331 48.0831 24.0656C48.1786 23.8983 48.2258 23.7119 48.2258 23.5069C48.2258 23.3034 48.1786 23.1191 48.0831 22.9547C47.9876 22.7901 47.8535 22.6583 47.6802 22.5591C47.5072 22.4604 47.3235 22.4109 47.1293 22.4109ZM47.1178 22.1625C47.5067 22.1625 47.8321 22.2925 48.0941 22.5514C48.3556 22.8105 48.4868 23.1293 48.4868 23.5076C48.4868 23.8832 48.3561 24.2013 48.0946 24.4624C47.8337 24.7244 47.5148 24.8548 47.1387 24.8548C46.7584 24.8548 46.4371 24.7248 46.1753 24.4643C45.9131 24.2043 45.7822 23.8897 45.7822 23.5201C45.7822 23.274 45.8418 23.0455 45.961 22.8353C46.0803 22.6248 46.2432 22.4604 46.4491 22.3413C46.6554 22.2222 46.8785 22.1625 47.1178 22.1625Z" fill="black"/>
<path d="M49.3793 22.4791V23.3475L49.8275 23.3512C50.001 23.3512 50.1295 23.3349 50.2126 23.3023C50.2958 23.2702 50.3607 23.2183 50.4071 23.147C50.454 23.0761 50.4773 22.9961 50.4773 22.908C50.4773 22.8223 50.4537 22.7449 50.4063 22.6748C50.3593 22.6046 50.2976 22.5542 50.2207 22.5242C50.1439 22.4941 50.0163 22.4791 49.8382 22.4791L49.3793 22.4791ZM49.125 22.2247H49.6386C49.9251 22.2247 50.119 22.2365 50.2209 22.26C50.3738 22.2947 50.4985 22.3697 50.5943 22.4846C50.69 22.5996 50.738 22.7412 50.738 22.9085C50.738 23.0485 50.7048 23.1719 50.6385 23.2781C50.5723 23.3842 50.4773 23.4643 50.354 23.5186C50.2308 23.5728 50.0605 23.6007 49.8433 23.6017L50.7692 24.7927H50.4486L49.5228 23.6017H49.3793V24.7927H49.125V22.2247Z" fill="black"/>
<path d="M51.3877 22.2247H52.8519V22.4791H51.642V23.2792H52.8393V23.5335H51.642V24.5383H52.8393V24.7927H51.3877V22.2247Z" fill="black"/>
<path d="M54.4171 22.7637L53.9759 23.7012H54.8572L54.4171 22.7637ZM54.4528 22.2247L55.6498 24.7927H55.3698L54.9763 23.9554H53.856L53.4617 24.7927H53.1812L54.3905 22.2247H54.4528Z" fill="black"/>
<path d="M58.0869 24.316L58.3052 24.1848C58.4584 24.4661 58.6351 24.6066 58.8358 24.6066C58.9216 24.6066 59.0023 24.587 59.078 24.5467C59.1531 24.5068 59.2105 24.4531 59.2499 24.3859C59.2893 24.3186 59.3089 24.2473 59.3089 24.172C59.3089 24.086 59.2802 24.0019 59.222 23.9193C59.1421 23.8055 58.9956 23.6683 58.7832 23.5076C58.5694 23.3461 58.4364 23.2296 58.3841 23.1576C58.2934 23.0362 58.2484 22.9053 58.2484 22.7645C58.2484 22.6531 58.2755 22.5512 58.3288 22.4593C58.3822 22.3673 58.4576 22.2951 58.5547 22.242C58.6518 22.1893 58.7574 22.1625 58.8712 22.1625C58.9921 22.1625 59.1051 22.1931 59.2107 22.2533C59.3156 22.3141 59.4274 22.425 59.5449 22.5871L59.3354 22.746C59.2384 22.6169 59.1557 22.5321 59.0871 22.4908C59.019 22.45 58.9441 22.4294 58.8637 22.4294C58.7596 22.4294 58.6743 22.4609 58.6081 22.5234C58.5421 22.5863 58.5088 22.6634 58.5088 22.7553C58.5088 22.8111 58.5204 22.865 58.5442 22.9171C58.567 22.9694 58.6099 23.0262 58.6722 23.0881C58.7057 23.1204 58.817 23.2057 59.005 23.3439C59.2282 23.5072 59.3805 23.6531 59.4637 23.7805C59.5468 23.9085 59.5881 24.0368 59.5881 24.1655C59.5881 24.3511 59.5173 24.5127 59.3762 24.6497C59.2354 24.7865 59.0635 24.8548 58.8612 24.8548C58.7051 24.8548 58.5641 24.8134 58.4375 24.7308C58.3106 24.6485 58.1939 24.5101 58.0869 24.316Z" fill="black"/>
<path d="M62.6225 22.6959L62.42 22.8513C62.3085 22.7067 62.1741 22.5974 62.0177 22.5226C61.8613 22.4484 61.6897 22.4109 61.5019 22.4109C61.2973 22.4109 61.1074 22.46 60.9333 22.5579C60.7587 22.6562 60.6233 22.7879 60.5272 22.9536C60.4315 23.1187 60.3835 23.3046 60.3835 23.5111C60.3835 23.8237 60.4908 24.0843 60.7053 24.2933C60.9199 24.5023 61.1911 24.6066 61.5178 24.6066C61.8774 24.6066 62.1781 24.4661 62.42 24.1848L62.6225 24.3384C62.4951 24.5031 62.3358 24.6301 62.1454 24.7203C61.9547 24.8097 61.742 24.8548 61.5065 24.8548C61.0588 24.8548 60.7064 24.7055 60.4479 24.4068C60.2314 24.1549 60.123 23.8504 60.123 23.4939C60.123 23.1187 60.2542 22.8031 60.5165 22.547C60.7788 22.2909 61.1079 22.1625 61.5027 22.1625C61.742 22.1625 61.9574 22.2093 62.1497 22.3028C62.342 22.3964 62.4997 22.5273 62.6225 22.6959Z" fill="black"/>
<path d="M63.2085 22.2247H63.4625V24.7927H63.2085V22.2247Z" fill="black"/>
<path d="M64.167 22.2247H65.6312V22.4791H64.4213V23.2792H65.6188V23.5335H64.4213V24.5383H65.6188V24.7927H64.167V22.2247Z" fill="black"/>
<path d="M66.1895 24.7927V22.2247H66.246L67.9455 24.1791V22.2247H68.1997V24.7927H68.1418L66.4566 22.855V24.7927H66.1895Z" fill="black"/>
<path d="M71.3218 22.6959L71.1195 22.8513C71.0077 22.7067 70.8738 22.5974 70.7175 22.5226C70.5606 22.4484 70.3886 22.4109 70.2014 22.4109C69.997 22.4109 69.8069 22.46 69.6325 22.5579C69.4574 22.6562 69.3222 22.7879 69.227 22.9536C69.1307 23.1187 69.0827 23.3046 69.0827 23.5111C69.0827 23.8237 69.1897 24.0843 69.4048 24.2933C69.6194 24.5023 69.89 24.6066 70.2172 24.6066C70.5767 24.6066 70.8776 24.4661 71.1195 24.1848L71.3218 24.3384C71.1946 24.5031 71.035 24.6301 70.8446 24.7203C70.6544 24.8097 70.4409 24.8548 70.206 24.8548C69.7586 24.8548 69.4054 24.7055 69.1471 24.4068C68.9304 24.1549 68.8223 23.8504 68.8223 23.4939C68.8223 23.1187 68.9537 22.8031 69.216 22.547C69.4783 22.2909 69.8069 22.1625 70.2028 22.1625C70.4409 22.1625 70.6568 22.2093 70.8492 22.3028C71.0415 22.3964 71.1992 22.5273 71.3218 22.6959Z" fill="black"/>
<path d="M71.9521 22.2247H73.4158V22.4791H72.2061V23.2792H73.4037V23.5335H72.2061V24.5383H73.4037V24.7927H71.9521V22.2247Z" fill="black"/>
<path d="M77.1737 22.7637L76.7322 23.7012H77.6138L77.1737 22.7637ZM77.2094 22.2247L78.4064 24.7927H78.1264L77.7332 23.9554H76.6123L76.2181 24.7927H75.9375L77.1474 22.2247H77.2094Z" fill="black"/>
<path d="M81.2998 22.6959L81.0973 22.8513C80.9852 22.7067 80.8511 22.5974 80.695 22.5226C80.5384 22.4484 80.3662 22.4109 80.179 22.4109C79.974 22.4109 79.7847 22.46 79.6095 22.5579C79.4352 22.6562 79.3 22.7879 79.2043 22.9536C79.108 23.1187 79.06 23.3046 79.06 23.5111C79.06 23.8237 79.1675 24.0843 79.3821 24.2933C79.5972 24.5023 79.8681 24.6066 80.1948 24.6066C80.5545 24.6066 80.8549 24.4661 81.0973 24.1848L81.2998 24.3384C81.1722 24.5031 81.0131 24.6301 80.8224 24.7203C80.6314 24.8097 80.419 24.8548 80.1835 24.8548C79.7364 24.8548 79.3832 24.7055 79.1251 24.4068C78.9082 24.1549 78.7998 23.8504 78.7998 23.4939C78.7998 23.1187 78.931 22.8031 79.1935 22.547C79.4561 22.2909 79.7847 22.1625 80.18 22.1625C80.419 22.1625 80.6341 22.2093 80.827 22.3028C81.019 22.3964 81.1764 22.5273 81.2998 22.6959Z" fill="black"/>
<path d="M82.9364 22.7637L82.4946 23.7012H83.3763L82.9364 22.7637ZM82.9715 22.2247L84.1691 24.7927H83.8888L83.4956 23.9554H82.3753L81.9807 24.7927H81.7002L82.9096 22.2247H82.9715Z" fill="black"/>
<path d="M84.9209 24.5508H85.2176C85.5724 24.5508 85.8187 24.5288 85.956 24.4847C86.1488 24.4219 86.3012 24.309 86.4117 24.1457C86.5222 23.9825 86.5769 23.7829 86.5769 23.5473C86.5769 23.2997 86.5171 23.0885 86.3975 22.913C86.2776 22.7375 86.1107 22.6173 85.8964 22.5522C85.7361 22.5034 85.4711 22.4791 85.1028 22.4791H84.9209V24.5508ZM84.6729 24.7927V22.2247H85.2058C85.5904 22.2247 85.8691 22.2556 86.0426 22.3174C86.2918 22.4048 86.4862 22.5558 86.6268 22.7712C86.7671 22.9865 86.8376 23.243 86.8376 23.5413C86.8376 23.7979 86.7821 24.0246 86.6708 24.2201C86.5595 24.4156 86.4152 24.5599 86.2371 24.6531C86.0601 24.7462 85.8109 24.7927 85.4906 24.7927H84.6729Z" fill="black"/>
<path d="M87.4453 22.2247H88.9095V22.4791H87.6998V23.2792H88.8969V23.5335H87.6998V24.5383H88.8969V24.7927H87.4453V22.2247Z" fill="black"/>
<path d="M89.3496 24.7927L89.712 22.2247H89.7602L90.7921 24.3336L91.8309 22.2247H91.8706L92.2343 24.7927H91.9888L91.7348 22.9568L90.8248 24.7927H90.7534L89.8493 22.9443L89.5977 24.7927H89.3496Z" fill="black"/>
<path d="M92.6602 22.2247H92.9579L93.6174 23.2889L94.2619 22.2247H94.558L93.7456 23.5666V24.7927H93.4914V23.5666L92.6602 22.2247Z" fill="black"/>
<path d="M98.5022 22.4109C98.3115 22.4109 98.1308 22.4604 97.9596 22.5591C97.7888 22.6583 97.6555 22.7915 97.5597 22.9588C97.4635 23.1265 97.4157 23.3132 97.4157 23.5193C97.4157 23.8242 97.5214 24.0816 97.7341 24.2917C97.9465 24.5017 98.2021 24.6066 98.5022 24.6066C98.7021 24.6066 98.8871 24.5583 99.0577 24.4616C99.2275 24.3654 99.3605 24.2331 99.4557 24.0656C99.5515 23.8983 99.599 23.7119 99.599 23.5069C99.599 23.3034 99.5515 23.1191 99.4557 22.9547C99.3605 22.7901 99.2262 22.6583 99.0532 22.5591C98.8802 22.4604 98.6964 22.4109 98.5022 22.4109ZM98.4907 22.1625C98.8799 22.1625 99.205 22.2925 99.4667 22.5514C99.7285 22.8105 99.8594 23.1293 99.8594 23.5076C99.8594 23.8832 99.7288 24.2013 99.4675 24.4624C99.2066 24.7244 98.8877 24.8548 98.5119 24.8548C98.131 24.8548 97.8097 24.7248 97.5479 24.4643C97.2862 24.2043 97.1553 23.8897 97.1553 23.5201C97.1553 23.274 97.2145 23.0455 97.3339 22.8353C97.4533 22.6248 97.6158 22.4604 97.8221 22.3413C98.028 22.2222 98.2509 22.1625 98.4907 22.1625Z" fill="black"/>
<path d="M100.479 22.2247H101.762V22.4791H100.733V23.2792H101.762V23.5335H100.733V24.7927H100.479V22.2247Z" fill="black"/>
<path d="M104.512 22.2247H104.766V23.1903L105.806 22.2247H106.146L104.904 23.3784L106.239 24.7927H105.892L104.766 23.6004V24.7927H104.512V22.2247Z" fill="black"/>
<path d="M107.742 22.7637L107.301 23.7012H108.182L107.742 22.7637ZM107.778 22.2247L108.975 24.7927H108.694L108.302 23.9554H107.181L106.786 24.7927H106.506L107.716 22.2247H107.778Z" fill="black"/>
<path d="M109.442 22.2247H109.697V24.7927H109.442V22.2247Z" fill="black"/>
<path d="M110.134 24.316L110.352 24.1848C110.505 24.4661 110.682 24.6066 110.883 24.6066C110.969 24.6066 111.05 24.587 111.125 24.5467C111.201 24.5068 111.258 24.4531 111.297 24.3859C111.337 24.3186 111.356 24.2473 111.356 24.172C111.356 24.086 111.327 24.0019 111.269 23.9193C111.189 23.8055 111.043 23.6683 110.83 23.5076C110.617 23.3461 110.483 23.2296 110.432 23.1576C110.341 23.0362 110.295 22.9053 110.295 22.7645C110.295 22.6531 110.323 22.5512 110.376 22.4593C110.429 22.3673 110.505 22.2951 110.602 22.242C110.699 22.1893 110.804 22.1625 110.919 22.1625C111.039 22.1625 111.152 22.1931 111.258 22.2533C111.363 22.3141 111.475 22.425 111.592 22.5871L111.383 22.746C111.285 22.6169 111.203 22.5321 111.135 22.4908C111.066 22.45 110.991 22.4294 110.911 22.4294C110.806 22.4294 110.722 22.4609 110.655 22.5234C110.589 22.5863 110.556 22.6634 110.556 22.7553C110.556 22.8111 110.568 22.865 110.591 22.9171C110.614 22.9694 110.657 23.0262 110.719 23.0881C110.753 23.1204 110.864 23.2057 111.052 23.3439C111.275 23.5072 111.428 23.6531 111.511 23.7805C111.594 23.9085 111.635 24.0368 111.635 24.1655C111.635 24.3511 111.565 24.5127 111.423 24.6497C111.282 24.7865 111.111 24.8548 110.908 24.8548C110.753 24.8548 110.611 24.8134 110.484 24.7308C110.358 24.6485 110.241 24.5101 110.134 24.316Z" fill="black"/>
<path d="M112.027 22.4791V22.2247H113.422V22.4791H112.852V24.7927H112.597V22.4791H112.027Z" fill="black"/>
</svg>
