<svg width="114" height="30" viewBox="0 0 114 30" fill="none" xmlns="http://www.w3.org/2000/svg">
<path d="M37.7267 25.1173L38.0188 25.1179V5.92102H31.6859L37.7267 25.1173Z" fill="white"/>
<path d="M34.9983 25.1102L31.4398 13.8055L27.8877 25.0917L34.9983 25.1102Z" fill="white"/>
<path d="M12.1239 15.0394C12.1239 6.98778 15.0748 0.430214 18.7617 0.166963C18.3991 0.0588715 18.0279 0 17.6497 0C15.1412 0 12.9207 2.46368 11.5589 6.24684H10.501L4.81216 13.787L11.4287 23.7545H7.53882L2.21183 15.7306V23.7545H0V25.4048H12.2477C13.6123 28.2368 15.528 30 17.6497 30C17.9137 30 18.5514 29.972 18.8892 29.9186C15.1432 29.7996 12.1239 23.184 12.1239 15.0394Z" fill="white"/>
<path d="M2.21185 6.24686V11.9825L6.53895 6.24686H2.21185Z" fill="white"/>
<path d="M20.1288 11.8158C19.6022 11.481 18.9433 10.8755 18.8746 10.2207C18.7645 9.17773 20.1744 8.63688 20.9955 8.63407C21.3915 8.63269 21.7873 8.65807 22.1816 8.89477C22.1824 8.89532 22.6763 9.11363 24.089 10.3801C24.3266 11.6657 24.4743 13.0447 24.5122 14.4858L24.4976 14.4739C24.4976 14.4739 20.3462 11.9542 20.1288 11.8158ZM19.5448 1.34213C19.32 1.34213 19.0987 1.37164 18.8807 1.42716C18.6638 1.50266 18.451 1.60257 18.2416 1.72796C19.8555 1.84262 21.3199 3.17899 22.4283 5.30405C22.1734 5.25497 21.866 5.21139 21.4969 5.18443C21.4969 5.18443 18.2344 4.81604 15.9708 7.36836C15.9708 7.36836 13.4183 10.3419 16.3923 13.4213C16.3923 13.4213 17.6028 14.6054 19.5494 15.6843C19.5494 15.6843 22.6158 17.6183 23.2871 18.3949C23.2871 18.3949 24.4709 19.4472 23.4447 20.6585C23.4447 20.6585 22.208 22.1054 20.0757 21.6316C20.0757 21.6316 18.4908 21.5073 16.7079 18.6578L13.3394 20.3421C13.3394 20.3421 14.9446 22.6853 15.3394 22.8949C15.3394 22.8949 17.129 24.9999 20.445 25.132C20.445 25.132 21.5023 25.17 22.4885 25.04C21.5062 26.9717 20.2338 28.2736 18.8215 28.6367C19.0583 28.7025 19.2992 28.7367 19.5448 28.7367C22.836 28.7367 25.5051 22.6043 25.5051 15.0394C25.5051 7.47471 22.836 1.34213 19.5448 1.34213Z" fill="white"/>
<path d="M25.6085 22.8819L30.9464 5.92108H25.0266C26.8718 11.1289 26.6028 16.1844 26.6028 16.1844C26.446 19.0121 26.0623 21.204 25.6085 22.8819Z" fill="white"/>
<path d="M49.9176 15.1436V18.9344H48.5033V11.3878H49.9176V13.9362H50.8598V15.1436H49.9176ZM46.3093 14.2687C46.0958 14.0623 45.845 13.9582 45.5594 13.9582C45.2736 13.9582 45.027 14.0623 44.8205 14.2687C44.6122 14.4764 44.5091 14.7299 44.5091 15.0288C44.5091 15.3143 44.6122 15.5648 44.8205 15.7793C45.027 15.9929 45.2736 16.0999 45.5594 16.0999C45.845 16.0999 46.0958 15.9929 46.3093 15.7793C46.5239 15.5648 46.6314 15.3143 46.6314 15.0288C46.6314 14.7299 46.5239 14.4764 46.3093 14.2687ZM43.6356 21.0512V17.6808H45.0497V19.845H50.1689V21.0512H43.6356ZM42.8593 13.0633V11.8564H44.8627V11.192H46.2777V11.8564H48.2386V13.0633H46.8318C47.2006 13.2613 47.4948 13.5346 47.7156 13.8799C47.936 14.2267 48.0455 14.6054 48.0455 15.015C48.0455 15.6512 47.8035 16.1926 47.3197 16.638C46.8366 17.0841 46.253 17.3064 45.5704 17.3064C44.887 17.3064 44.3033 17.0841 43.82 16.638C43.3364 16.1926 43.0952 15.6512 43.0952 15.015C43.0952 14.6054 43.2081 14.2267 43.435 13.8799C43.6627 13.5346 43.9537 13.2613 44.309 13.0633H42.8593Z" fill="white"/>
<path d="M56.4797 15.9145V17.2884H58.9349V21.0436H57.5206V18.495H52.3669V17.2884H55.0657V15.9145H51.9174V14.7081H57.5206V12.5864H52.4015V11.3799H58.9349V14.7081H59.6197V15.9145H56.4797Z" fill="white"/>
<path d="M64.3636 16.8322V12.6123H60.8939V11.4063H65.7781V16.8322H64.3636ZM66.4857 11.4011H67.9002V14.4847H68.8427V15.6912H67.9002V21.0002H66.4857V18.6866H60.6839V17.4804H62.0548V13.9678H63.4693V17.4804H66.4857V11.4011Z" fill="white"/>
<path d="M76.9272 14.9556V17.0327H75.5132V11.3931H76.9272V13.7496H77.8697V14.9556H76.9272ZM73.3018 14.1051C73.1038 13.9127 72.8697 13.8161 72.6004 13.8161C72.3314 13.8161 72.0978 13.9127 71.8996 14.1051C71.7011 14.2985 71.6024 14.5376 71.6024 14.8226C71.6024 15.0937 71.7011 15.3335 71.8996 15.5396C72.0978 15.7467 72.3314 15.8504 72.6004 15.8504C72.8697 15.8504 73.1038 15.7467 73.3018 15.5396C73.5 15.3335 73.599 15.0937 73.599 14.8226C73.599 14.5376 73.5 14.2985 73.3018 14.1051ZM75.5132 21.0387V18.5757H70.4367V17.3698H76.9272V21.0387H75.5132ZM69.8877 13.0215V11.8148H71.9143V11.1507H73.3289V11.8148H75.2922V13.0215H74.0753C74.3599 13.2209 74.5871 13.4731 74.7574 13.7799C74.9285 14.0863 75.0138 14.4239 75.0138 14.794C75.0138 15.4063 74.7815 15.9359 74.3167 16.3844C73.8519 16.8327 73.2833 17.0577 72.6111 17.0577C71.9398 17.0577 71.3674 16.8327 70.8954 16.3844C70.4233 15.9359 70.1873 15.4063 70.1873 14.794C70.1873 14.4239 70.275 14.0863 70.4501 13.7799C70.625 13.4731 70.8648 13.2209 71.1711 13.0215H69.8877Z" fill="white"/>
<path d="M84.7081 14.3128V13.2523H83.9161C83.9306 13.3231 83.941 13.4047 83.9486 13.4969C83.9555 13.5876 83.959 13.6764 83.959 13.7616C83.959 13.8607 83.9555 13.9561 83.9486 14.048C83.9411 14.1398 83.9236 14.2283 83.8949 14.3128H84.7081ZM83.8912 18.0626C83.638 17.8236 83.3448 17.7041 83.0122 17.7041C82.6507 17.7041 82.3503 17.8236 82.1113 18.0626C81.8734 18.3009 81.7538 18.6008 81.7538 18.9623C81.7538 19.3239 81.8734 19.6251 82.1113 19.8635C82.3503 20.1011 82.6507 20.2216 83.0122 20.2216C83.3448 20.2216 83.638 20.1011 83.8912 19.8635C84.1441 19.6251 84.2704 19.3239 84.2704 18.9623C84.2704 18.6008 84.1441 18.3009 83.8912 18.0626ZM84.901 20.6948C84.3772 21.1831 83.7474 21.4277 83.0122 21.4277C82.2771 21.4277 81.647 21.1831 81.1245 20.6948C80.601 20.2054 80.3392 19.6286 80.3392 18.9623C80.3392 18.2821 80.601 17.7016 81.1245 17.22C81.647 16.7382 82.2771 16.4974 83.0122 16.4974C83.7474 16.4974 84.3772 16.7382 84.901 17.22C85.4237 17.7016 85.686 18.2821 85.686 18.9623C85.686 19.6286 85.4237 20.2054 84.901 20.6948ZM82.1969 12.8574C81.9643 12.6207 81.6811 12.5037 81.3474 12.5037C81.0277 12.5037 80.7531 12.6207 80.5213 12.8574C80.2882 13.0929 80.1734 13.3805 80.1734 13.7191C80.1734 14.0446 80.2882 14.3309 80.5213 14.582C80.7531 14.8332 81.0277 14.958 81.3474 14.958C81.6811 14.958 81.9643 14.8332 82.1969 14.582C82.4286 14.3309 82.5442 14.0446 82.5442 13.7191C82.5442 13.3805 82.4286 13.0929 82.1969 12.8574ZM83.6417 12.0449H84.7081V11.2964H86.1227V17.0187H84.7081V15.5194H83.6417V14.9623C83.4143 15.3196 83.0978 15.6098 82.6922 15.8312C82.287 16.0541 81.8428 16.1644 81.36 16.1644C80.635 16.1644 80.02 15.9245 79.515 15.4452C79.0102 14.965 78.7578 14.3934 78.7578 13.7305C78.7578 13.0536 79.0102 12.4782 79.515 12.0065C80.02 11.5331 80.635 11.2964 81.36 11.2964C81.8428 11.2964 82.287 11.4117 82.6922 11.6386C83.0978 11.8675 83.4143 12.1667 83.6417 12.5381V12.0449Z" fill="white"/>
<path d="M90.8942 17.5005L89.8224 14.3064L88.7735 17.5005H87.3173L89.0098 12.5864H87.7027V11.3799H91.9652V12.5864H90.6577L92.2857 17.3198V11.3799H93.7005V13.9588H94.0122V11.3799H95.4273V21.0346H94.0122V15.1662H93.7005V21.0346H92.2857V17.5005H90.8942Z" fill="white"/>
<path d="M103.914 14.9556V17.0327H102.5V11.3931H103.914V13.7496H104.857V14.9556H103.914ZM100.289 14.1051C100.091 13.9127 99.8569 13.8161 99.5876 13.8161C99.3186 13.8161 99.0844 13.9127 98.8865 14.1051C98.6877 14.2985 98.5888 14.5376 98.5888 14.8226C98.5888 15.0937 98.6877 15.3335 98.8865 15.5396C99.0844 15.7467 99.3186 15.8504 99.5876 15.8504C99.8569 15.8504 100.091 15.7467 100.289 15.5396C100.487 15.3335 100.587 15.0937 100.587 14.8226C100.587 14.5376 100.487 14.2985 100.289 14.1051ZM102.5 21.0387V18.5757H97.4239V17.3698H103.914V21.0387H102.5ZM96.8743 13.0215V11.8148H98.9012V11.1507H100.316V11.8148H102.279V13.0215H101.062C101.347 13.2209 101.574 13.4731 101.744 13.7799C101.915 14.0863 102.001 14.4239 102.001 14.794C102.001 15.4063 101.768 15.9359 101.303 16.3844C100.839 16.8327 100.271 17.0577 99.5986 17.0577C98.9264 17.0577 98.3541 16.8327 97.882 16.3844C97.4094 15.9359 97.1739 15.4063 97.1739 14.794C97.1739 14.4239 97.2619 14.0863 97.4368 13.7799C97.6119 13.4731 97.8514 13.2209 98.1577 13.0215H96.8743Z" fill="white"/>
<path d="M111.707 17.6202V12.5864H106.289V11.3799H113.122V17.6202H111.707ZM105.849 19.8261V18.6193H107.005V14.678H108.42V18.6193H109.336V14.678H110.75V18.6193H113.578V19.8261H105.849Z" fill="white"/>
<path d="M60.9358 7.23777H59.1449V7.80867H60.9358V7.23777ZM58.5859 8.18229V6.39545H59.1449V6.86428H60.9358V6.39545H61.4953V8.18229H58.5859ZM60.3253 8.93637V10.1661H59.7664V8.93637H58.2523V8.56221H61.8391V8.93637H60.3253Z" fill="white"/>
<path d="M65.029 8.1918V7.34358H64.3614V6.97022H65.029V6.40094H65.588V8.1918H65.029ZM62.5647 10.1692V9.0981H65.029V8.77396H62.5647V8.40048H65.588V9.47159H63.1236V9.79572H65.7033V10.1692H62.5647ZM64.1721 8.1918L63.4149 6.92838L62.6583 8.1918H62.0712L63.1065 6.40094H63.7148L64.7501 8.1918H64.1721Z" fill="white"/>
<path d="M49.7465 10.1294H50.7069V6.43958H49.7465V10.1294Z" fill="white"/>
<path d="M56.8522 6.44128H54.0424L54.0456 7.24083H54.9616V10.1365L55.9336 10.1331V7.24083H56.8522L56.8522 6.44128Z" fill="white"/>
<path d="M48.4435 6.38925H48.0881H47.483H47.1279L46.0462 9.41846L45.1525 8.2288L46.496 6.43954H45.5359L44.4618 7.86966V6.43954H43.5018V10.1294H44.4618V8.5878L45.6212 10.1307H45.7919H46.5815H46.7519L47.7587 7.31124L48.3638 9.33639H47.4599V10.1359H48.9601V10.1307H49.5619L48.4435 6.38925Z" fill="white"/>
<path d="M53.0645 7.81253L53.0631 7.8106H51.9294V7.23609H53.8168V6.43668H52.1381L52.1372 6.43778C51.538 6.43778 51.0523 6.92379 51.0523 7.52298C51.0523 8.11264 51.5228 8.59127 52.1085 8.6071L52.1094 8.60993H53.3367V9.33639H51.1647V10.1359H53.0854L53.0868 10.134C53.713 10.1154 54.2146 9.60348 54.2146 8.97398C54.2146 8.3359 53.7007 7.81897 53.0645 7.81253Z" fill="white"/>
<path d="M43.6757 22.2247H43.93V23.1903L44.9696 22.2247H45.3102L44.0678 23.3785L45.4033 24.7927H45.0557L43.93 23.6004V24.7927H43.6757V22.2247Z" fill="white"/>
<path d="M47.1292 22.4109C46.9382 22.4109 46.7577 22.4604 46.5866 22.5591C46.416 22.6583 46.2824 22.7915 46.1864 22.9589C46.0904 23.1265 46.0426 23.3132 46.0426 23.5193C46.0426 23.8243 46.1489 24.0816 46.3613 24.2918C46.5737 24.5018 46.8293 24.6066 47.1292 24.6066C47.3293 24.6066 47.5143 24.5584 47.6844 24.4617C47.8544 24.3654 47.9875 24.2331 48.0829 24.0656C48.1784 23.8983 48.2256 23.7119 48.2256 23.507C48.2256 23.3034 48.1784 23.1191 48.0829 22.9547C47.9875 22.7902 47.8534 22.6583 47.6801 22.5591C47.5071 22.4604 47.3234 22.4109 47.1292 22.4109ZM47.1176 22.1625C47.5066 22.1625 47.8319 22.2925 48.0939 22.5514C48.3555 22.8105 48.4866 23.1293 48.4866 23.5076C48.4866 23.8833 48.356 24.2014 48.0945 24.4625C47.8335 24.7244 47.5146 24.8549 47.1386 24.8549C46.7582 24.8549 46.4369 24.7248 46.1751 24.4643C45.913 24.2043 45.7821 23.8897 45.7821 23.5201C45.7821 23.274 45.8416 23.0455 45.9608 22.8354C46.0802 22.6248 46.243 22.4604 46.449 22.3413C46.6552 22.2222 46.8784 22.1625 47.1176 22.1625Z" fill="white"/>
<path d="M49.379 22.4791V23.3475L49.8271 23.3512C50.0007 23.3512 50.1292 23.3349 50.2123 23.3023C50.2954 23.2702 50.3604 23.2183 50.4068 23.147C50.4537 23.0761 50.477 22.9961 50.477 22.908C50.477 22.8223 50.4534 22.7449 50.406 22.6748C50.359 22.6047 50.2973 22.5542 50.2203 22.5242C50.1436 22.4942 50.016 22.4791 49.8379 22.4791L49.379 22.4791ZM49.1247 22.2247H49.6383C49.9248 22.2247 50.1187 22.2365 50.2206 22.26C50.3735 22.2947 50.4982 22.3697 50.594 22.4846C50.6897 22.5996 50.7377 22.7412 50.7377 22.9085C50.7377 23.0486 50.7045 23.1719 50.6382 23.2781C50.572 23.3842 50.477 23.4643 50.3537 23.5186C50.2305 23.5728 50.0602 23.6007 49.843 23.6017L50.7688 24.7927H50.4483L49.5225 23.6017H49.379V24.7927H49.1247V22.2247Z" fill="white"/>
<path d="M51.3882 22.2247H52.8524V22.4791H51.6425V23.2792H52.8398V23.5335H51.6425V24.5383H52.8398V24.7927H51.3882V22.2247Z" fill="white"/>
<path d="M54.4174 22.7637L53.9762 23.7012H54.8575L54.4174 22.7637ZM54.4531 22.2247L55.6501 24.7927H55.3701L54.9766 23.9554H53.8563L53.462 24.7927H53.1815L54.3908 22.2247H54.4531Z" fill="white"/>
<path d="M58.0869 24.316L58.3052 24.1849C58.4583 24.4661 58.6351 24.6066 58.8357 24.6066C58.9215 24.6066 59.0023 24.5871 59.0779 24.5467C59.153 24.5069 59.2104 24.4531 59.2498 24.3859C59.2893 24.3186 59.3088 24.2474 59.3088 24.172C59.3088 24.086 59.2801 24.0019 59.2219 23.9193C59.142 23.8055 58.9956 23.6683 58.7831 23.5076C58.5694 23.3462 58.4363 23.2296 58.384 23.1576C58.2934 23.0362 58.2483 22.9054 58.2483 22.7645C58.2483 22.6531 58.2754 22.5512 58.3288 22.4593C58.3822 22.3673 58.4575 22.2952 58.5546 22.2421C58.6517 22.1894 58.7574 22.1625 58.8711 22.1625C58.9921 22.1625 59.105 22.1931 59.2107 22.2533C59.3155 22.3141 59.4274 22.425 59.5449 22.5871L59.3354 22.746C59.2383 22.6169 59.1557 22.5321 59.087 22.4908C59.0189 22.4501 58.9441 22.4294 58.8636 22.4294C58.7595 22.4294 58.6742 22.4609 58.608 22.5234C58.542 22.5863 58.5088 22.6634 58.5088 22.7553C58.5088 22.8111 58.5203 22.865 58.5442 22.9172C58.567 22.9695 58.6099 23.0262 58.6721 23.0881C58.7056 23.1205 58.8169 23.2058 59.0049 23.3439C59.2281 23.5072 59.3804 23.6531 59.4636 23.7805C59.5467 23.9085 59.588 24.0368 59.588 24.1656C59.588 24.3512 59.5172 24.5128 59.3762 24.6497C59.2353 24.7865 59.0634 24.8549 58.8612 24.8549C58.7051 24.8549 58.564 24.8134 58.4374 24.7308C58.3105 24.6485 58.1939 24.5101 58.0869 24.316Z" fill="white"/>
<path d="M62.6223 22.6959L62.4198 22.8513C62.3082 22.7067 62.1739 22.5974 62.0175 22.5226C61.8611 22.4485 61.6895 22.4109 61.5017 22.4109C61.2971 22.4109 61.1072 22.46 60.9331 22.5579C60.7585 22.6562 60.6231 22.7879 60.527 22.9536C60.4313 23.1187 60.3833 23.3046 60.3833 23.5111C60.3833 23.8237 60.4906 24.0843 60.7051 24.2934C60.9197 24.5023 61.1909 24.6066 61.5175 24.6066C61.8772 24.6066 62.1779 24.4661 62.4198 24.1849L62.6223 24.3384C62.4949 24.5031 62.3356 24.6301 62.1452 24.7204C61.9545 24.8097 61.7418 24.8549 61.5063 24.8549C61.0586 24.8549 60.7062 24.7055 60.4476 24.4068C60.2312 24.155 60.1228 23.8504 60.1228 23.494C60.1228 23.1187 60.254 22.8032 60.5163 22.547C60.7786 22.2909 61.1077 22.1625 61.5025 22.1625C61.7418 22.1625 61.9571 22.2093 62.1495 22.3028C62.3418 22.3964 62.4995 22.5273 62.6223 22.6959Z" fill="white"/>
<path d="M63.2089 22.2247H63.4629V24.7927H63.2089V22.2247Z" fill="white"/>
<path d="M64.167 22.2247H65.6312V22.4791H64.4213V23.2792H65.6188V23.5335H64.4213V24.5383H65.6188V24.7927H64.167V22.2247Z" fill="white"/>
<path d="M66.1896 24.7927V22.2247H66.2462L67.9456 24.1791V22.2247H68.1998V24.7927H68.1419L66.4567 22.855V24.7927H66.1896Z" fill="white"/>
<path d="M71.3218 22.6959L71.1196 22.8513C71.0077 22.7067 70.8739 22.5974 70.7175 22.5226C70.5606 22.4485 70.3887 22.4109 70.2015 22.4109C69.9971 22.4109 69.8069 22.46 69.6326 22.5579C69.4575 22.6562 69.3223 22.7879 69.2271 22.9536C69.1308 23.1187 69.0828 23.3046 69.0828 23.5111C69.0828 23.8237 69.1898 24.0843 69.4049 24.2934C69.6195 24.5023 69.8901 24.6066 70.2173 24.6066C70.5767 24.6066 70.8777 24.4661 71.1196 24.1849L71.3218 24.3384C71.1947 24.5031 71.0351 24.6301 70.8447 24.7204C70.6545 24.8097 70.441 24.8549 70.206 24.8549C69.7587 24.8549 69.4054 24.7055 69.1471 24.4068C68.9304 24.155 68.8223 23.8504 68.8223 23.494C68.8223 23.1187 68.9538 22.8032 69.2161 22.547C69.4784 22.2909 69.8069 22.1625 70.2028 22.1625C70.441 22.1625 70.6569 22.2093 70.8492 22.3028C71.0415 22.3964 71.1992 22.5273 71.3218 22.6959Z" fill="white"/>
<path d="M71.9519 22.2247H73.4155V22.4791H72.2059V23.2792H73.4035V23.5335H72.2059V24.5383H73.4035V24.7927H71.9519V22.2247Z" fill="white"/>
<path d="M77.1738 22.7637L76.7323 23.7012H77.6139L77.1738 22.7637ZM77.2094 22.2247L78.4065 24.7927H78.1265L77.7333 23.9554H76.6124L76.2181 24.7927H75.9376L77.1475 22.2247H77.2094Z" fill="white"/>
<path d="M81.2997 22.6959L81.0972 22.8513C80.9851 22.7067 80.851 22.5974 80.6949 22.5226C80.5382 22.4485 80.3661 22.4109 80.1788 22.4109C79.9739 22.4109 79.7846 22.46 79.6094 22.5579C79.4351 22.6562 79.2999 22.7879 79.2041 22.9536C79.1079 23.1187 79.0599 23.3046 79.0599 23.5111C79.0599 23.8237 79.1674 24.0843 79.382 24.2934C79.5971 24.5023 79.868 24.6066 80.1947 24.6066C80.5543 24.6066 80.8547 24.4661 81.0972 24.1849L81.2997 24.3384C81.172 24.5031 81.013 24.6301 80.8223 24.7204C80.6313 24.8097 80.4189 24.8549 80.1834 24.8549C79.7363 24.8549 79.383 24.7055 79.125 24.4068C78.908 24.155 78.7997 23.8504 78.7997 23.494C78.7997 23.1187 78.9308 22.8032 79.1934 22.547C79.456 22.2909 79.7846 22.1625 80.1799 22.1625C80.4189 22.1625 80.634 22.2093 80.8268 22.3028C81.0189 22.3964 81.1763 22.5273 81.2997 22.6959Z" fill="white"/>
<path d="M82.936 22.7637L82.4943 23.7012H83.3759L82.936 22.7637ZM82.9712 22.2247L84.1687 24.7927H83.8885L83.4953 23.9554H82.3749L81.9804 24.7927H81.6998L82.9092 22.2247H82.9712Z" fill="white"/>
<path d="M84.9213 24.5508H85.218C85.5728 24.5508 85.819 24.5288 85.9564 24.4847C86.1492 24.4219 86.3015 24.309 86.412 24.1457C86.5226 23.9825 86.5773 23.7829 86.5773 23.5473C86.5773 23.2997 86.5175 23.0885 86.3978 22.913C86.2779 22.7376 86.1111 22.6173 85.8968 22.5522C85.7364 22.5034 85.4714 22.4791 85.1032 22.4791H84.9213V24.5508ZM84.6732 24.7927V22.2247H85.2062C85.5908 22.2247 85.8695 22.2556 86.043 22.3174C86.2922 22.4048 86.4866 22.5558 86.6272 22.7712C86.7674 22.9865 86.838 23.243 86.838 23.5413C86.838 23.7979 86.7825 24.0246 86.6711 24.2201C86.5598 24.4156 86.4155 24.5599 86.2374 24.6531C86.0604 24.7462 85.8113 24.7927 85.491 24.7927H84.6732Z" fill="white"/>
<path d="M87.4453 22.2247H88.9094V22.4791H87.6998V23.2792H88.8968V23.5335H87.6998V24.5383H88.8968V24.7927H87.4453V22.2247Z" fill="white"/>
<path d="M89.3499 24.7927L89.7122 22.2247H89.7605L90.7923 24.3336L91.8311 22.2247H91.8708L92.2345 24.7927H91.9891L91.7351 22.9568L90.825 24.7927H90.7537L89.8495 22.9443L89.598 24.7927H89.3499Z" fill="white"/>
<path d="M92.6602 22.2247H92.9579L93.6174 23.2889L94.2619 22.2247H94.558L93.7456 23.5666V24.7927H93.4914V23.5666L92.6602 22.2247Z" fill="white"/>
<path d="M98.5021 22.4109C98.3114 22.4109 98.1306 22.4604 97.9595 22.5591C97.7886 22.6583 97.6553 22.7915 97.5596 22.9589C97.4633 23.1265 97.4155 23.3132 97.4155 23.5193C97.4155 23.8243 97.5212 24.0816 97.7339 24.2918C97.9463 24.5018 98.2019 24.6066 98.5021 24.6066C98.7019 24.6066 98.8869 24.5584 99.0575 24.4617C99.2273 24.3654 99.3603 24.2331 99.4556 24.0656C99.5513 23.8983 99.5988 23.7119 99.5988 23.507C99.5988 23.3034 99.5513 23.1191 99.4556 22.9547C99.3603 22.7902 99.226 22.6583 99.053 22.5591C98.88 22.4604 98.6962 22.4109 98.5021 22.4109ZM98.4905 22.1625C98.8797 22.1625 99.2048 22.2925 99.4666 22.5514C99.7283 22.8105 99.8592 23.1293 99.8592 23.5076C99.8592 23.8833 99.7286 24.2014 99.4674 24.4625C99.2064 24.7244 98.8875 24.8549 98.5117 24.8549C98.1309 24.8549 97.8095 24.7248 97.5478 24.4643C97.286 24.2043 97.1551 23.8897 97.1551 23.5201C97.1551 23.274 97.2144 23.0455 97.3337 22.8354C97.4531 22.6248 97.6156 22.4604 97.8219 22.3413C98.0279 22.2222 98.2507 22.1625 98.4905 22.1625Z" fill="white"/>
<path d="M100.479 22.2247H101.763V22.4791H100.733V23.2792H101.763V23.5335H100.733V24.7927H100.479V22.2247Z" fill="white"/>
<path d="M104.511 22.2247H104.766V23.1903L105.805 22.2247H106.146L104.904 23.3785L106.238 24.7927H105.892L104.766 23.6004V24.7927H104.511V22.2247Z" fill="white"/>
<path d="M107.742 22.7637L107.301 23.7012H108.183L107.742 22.7637ZM107.778 22.2247L108.975 24.7927H108.695L108.302 23.9554H107.181L106.786 24.7927H106.506L107.716 22.2247H107.778Z" fill="white"/>
<path d="M109.442 22.2247H109.697V24.7927H109.442V22.2247Z" fill="white"/>
<path d="M110.134 24.316L110.352 24.1849C110.505 24.4661 110.682 24.6066 110.883 24.6066C110.968 24.6066 111.049 24.5871 111.124 24.5467C111.2 24.5069 111.258 24.4531 111.297 24.3859C111.336 24.3186 111.356 24.2474 111.356 24.172C111.356 24.086 111.327 24.0019 111.269 23.9193C111.189 23.8055 111.043 23.6683 110.83 23.5076C110.616 23.3462 110.483 23.2296 110.431 23.1576C110.34 23.0362 110.295 22.9054 110.295 22.7645C110.295 22.6531 110.322 22.5512 110.376 22.4593C110.429 22.3673 110.505 22.2952 110.601 22.2421C110.699 22.1894 110.804 22.1625 110.918 22.1625C111.039 22.1625 111.152 22.1931 111.258 22.2533C111.363 22.3141 111.474 22.425 111.592 22.5871L111.382 22.746C111.285 22.6169 111.203 22.5321 111.134 22.4908C111.066 22.4501 110.991 22.4294 110.91 22.4294C110.806 22.4294 110.721 22.4609 110.655 22.5234C110.589 22.5863 110.556 22.6634 110.556 22.7553C110.556 22.8111 110.568 22.865 110.591 22.9172C110.614 22.9695 110.657 23.0262 110.719 23.0881C110.752 23.1205 110.864 23.2058 111.052 23.3439C111.275 23.5072 111.428 23.6531 111.511 23.7805C111.594 23.9085 111.635 24.0368 111.635 24.1656C111.635 24.3512 111.564 24.5128 111.423 24.6497C111.282 24.7865 111.11 24.8549 110.908 24.8549C110.752 24.8549 110.611 24.8134 110.484 24.7308C110.358 24.6485 110.241 24.5101 110.134 24.316Z" fill="white"/>
<path d="M112.027 22.4791V22.2247H113.423V22.4791H112.852V24.7927H112.598V22.4791H112.027Z" fill="white"/>
</svg>
