<svg width="375" height="667" viewBox="0 0 375 667" fill="none" xmlns="http://www.w3.org/2000/svg">
<path d="M-404 320.299L-386.152 372.915L-352.311 435.402L-307.858 492.712L-253.646 544.03L-190.658 588.558L-120.008 625.515L-42.9944 654.142L8.36085 666.425" stroke="white" stroke-opacity="0.36" stroke-width="1.08501" stroke-linecap="round" stroke-linejoin="round"/>
<path d="M209.737 0.389709L205.339 47.3105L200.905 98.591L196.898 148.87L193.317 197.776L190.163 245.012L187.436 290.319L185.117 333.473L183.169 374.29L181.61 412.639L180.404 448.372L179.848 469.449" stroke="white" stroke-opacity="0.36" stroke-width="1.08501" stroke-linecap="round" stroke-linejoin="round"/>
<path d="M780.799 570.858L744.343 543.307L699.407 510.857L655.437 481.154L612.653 454.809L571.317 432.452L531.651 414.641L493.932 401.914L458.421 394.789L420.258 392.099L385.823 393.584L355.006 398.76L327.641 407.239L303.522 418.556L288.215 432.434L269.514 443.918L268.104 444.975L267.585 445.421L265.525 446.831" stroke="white" stroke-opacity="0.36" stroke-width="1.08501" stroke-linecap="round" stroke-linejoin="round"/>
<path d="M-243.664 0.389709L-272.459 40.8169L-296.002 86.3458L-312.273 134.566L-320.659 184.974L-320.492 237.034L-311.067 290.133L-291.624 343.603L-262.44 394.976L-224.74 441.879L-179.229 483.716L-126.761 519.857L-68.2819 549.764L-4.79339 572.863L62.5543 588.67L132.555 596.741L203.966 596.704L275.488 588.281L345.785 571.305L413.467 545.72L474.488 513.141L527.179 475.051L571.317 432.453L606.716 386.349L633.339 337.685L651.188 287.369L660.316 236.199L660.798 184.937L652.746 134.287L636.252 84.8433L611.429 37.162L584.619 0.389709" stroke="white" stroke-opacity="0.36" stroke-width="1.08501" stroke-linecap="round" stroke-linejoin="round"/>
<path d="M171.627 0.389709L171.683 45.6219L171.757 97.1252L171.868 147.571L171.98 196.663L172.128 244.065L172.276 289.52L172.443 332.805L172.629 373.733L172.814 412.156L173 447.964L173.13 469.449" stroke="white" stroke-opacity="0.36" stroke-width="1.08501" stroke-linecap="round" stroke-linejoin="round"/>
<path d="M373.837 0.389709L352.594 39.7778L329.347 86.4944L308.085 132.933L288.827 178.684L271.573 223.472L256.285 266.979L242.908 308.965L231.424 349.206L221.721 387.518L213.743 423.752L207.398 457.797L206.025 466.944" stroke="white" stroke-opacity="0.36" stroke-width="1.08501" stroke-linecap="round" stroke-linejoin="round"/>
<path d="M273.947 337.87L257.231 373.547L243.149 407.945L231.553 440.913L235.672 448.094L238.548 455.552L239.29 459.04" stroke="white" stroke-opacity="0.36" stroke-width="1.08501" stroke-linecap="round" stroke-linejoin="round"/>
<path d="M226.452 434.401L218.622 464.642" stroke="white" stroke-opacity="0.36" stroke-width="1.08501" stroke-linecap="round" stroke-linejoin="round"/>
<path d="M126.248 465.571L117.899 435.607L106.73 401.637L93.2417 366.015L77.323 328.927L58.8999 290.541L37.8606 251.097L14.1311 210.818L-12.3256 170.002L-41.5281 128.944L-73.4764 87.9973L-108.096 47.5143L-139.581 14.9165L-155.796 0.389709" stroke="white" stroke-opacity="0.36" stroke-width="1.08501" stroke-linecap="round" stroke-linejoin="round"/>
<path d="M40.8833 666.426L50.9761 628.708L62.5532 588.67L73.6107 554.31L84.1116 526.184L93.9819 504.848L104.576 487.111L114.112 475.2L151.033 479.337L188.64 479.318L226.358 474.996L263.576 466.257L299.661 453.029L332.537 436.071L361.313 416.108L385.822 393.585L405.971 368.983L421.611 342.731L432.705 315.31L439.18 287.109L440.962 258.537L438.011 229.965L430.293 201.783L417.77 174.325L400.571 148.109L379.718 124.602L355.84 104.045L329.346 86.4943L300.663 72.0043L270.18 60.5943L238.288 52.3383L205.338 47.3105L171.682 45.6219L137.675 47.3843L103.629 52.6907L69.9187 61.7263L37.4322 74.3791L7.89588 89.9826L-18.468 108.257L-41.5298 128.944L-61.0662 151.764L-76.8732 176.44L-88.6915 202.655L-96.3168 230.132L-99.4524 258.556L-97.8011 287.573L-91.1035 316.831L-79.0626 345.941L-61.9753 373.603L-40.6207 398.594L-15.4069 420.672L13.1647 439.578L44.631 455.125L78.4533 467.055L114.112 475.2L122.646 468.502L152.795 471.879L154.149 472.027L156.932 469.467H159.474H166.339L173.13 469.449H179.846H184.15L186.488 469.189L193.074 468.428L199.604 467.686L206.024 466.944L211.442 466.331L212.109 466.165L212.295 466.128L216.358 465.181L218.621 464.643L225.041 463.14L231.238 461.693L233.575 461.136L238.418 460.005L239.364 459.337L242.444 458.205L245.895 457.278L247.713 456.294L250.18 455.07L252.091 454.272L252.499 454.124L252.796 453.734L253.019 453.623L257.342 451.415L260.18 449.949L260.811 449.615L261.015 449.522L263.427 448.279L264.411 447.778L264.874 447.426L265.375 446.665L265.561 446.461L273.298 437.556L280.422 426.016L285.635 413.863L288.882 401.284L290.106 388.446L289.272 375.514L286.321 362.657L281.201 350.022L273.947 337.87L293.409 301.116L315.71 263.509L340.979 225.271L369.254 186.7L400.571 148.109L434.932 109.797L472.335 72.1529L506.417 42.1341L541.964 15.5289L565.657 0.389709" stroke="white" stroke-opacity="0.36" stroke-width="1.08501" stroke-linecap="round" stroke-linejoin="round"/>
<path d="M-46.816 0.389709L-77.4657 20.9648L-108.097 47.5143L-134.275 76.9026L-155.667 108.777L-171.957 142.803L-182.773 178.611L-187.708 215.791L-186.354 253.936L-178.265 292.563L-163.014 331.191L-140.88 368.056L-112.865 401.507L-79.5436 431.155L-41.4915 456.647L0.587196 477.63L46.0051 493.809L93.9831 504.847L143.743 510.469L194.467 510.432L245.302 504.569L295.414 492.714L343.837 474.81L387.79 451.916L426.046 425.014L458.421 394.791L484.785 361.877L505.026 326.942L519.071 290.56L526.882 253.323L528.44 215.753L523.765 178.388L512.819 141.671L495.601 106.031L472.336 72.1529L444.432 41.9113L412.725 15.566L389.07 0.389709" stroke="white" stroke-opacity="0.36" stroke-width="1.08501" stroke-linecap="round" stroke-linejoin="round"/>
<path d="M-296.096 0.389709L-313.629 24.5644L-339.9 74.1753L-358.304 126.847L-368.156 182.024L-368.638 239.13L-358.954 297.554L-338.211 356.516L-306.671 413.307L-265.613 465.274L-215.798 511.731L-158.117 551.954L-93.6449 585.275L-23.5326 611.045L50.9764 628.708L128.473 637.725L207.564 637.669L286.749 628.263L364.523 609.301L439.255 580.767L506.491 544.477L564.377 502.102L612.652 454.81L651.187 403.752L679.925 349.967L698.942 294.493L708.33 238.203L708.2 181.968L698.738 126.513L680.074 72.5238L652.355 20.5938L637.365 0.389709" stroke="white" stroke-opacity="0.36" stroke-width="1.08501" stroke-linecap="round" stroke-linejoin="round"/>
<path d="M329.236 0.389709L319.588 23.3396L300.664 72.0043L283.336 120.224L267.64 167.664L253.558 213.991L241.09 258.871L230.181 302.081L220.793 343.399L212.89 382.639L206.396 419.652L201.22 454.328L199.605 467.686" stroke="white" stroke-opacity="0.36" stroke-width="1.08501" stroke-linecap="round" stroke-linejoin="round"/>
<path d="M231.238 461.693L235.673 448.094L248.103 416.498L243.149 407.945L236.99 400.208L229.791 393.381L221.721 387.518L212.889 382.639L203.446 378.798L193.483 375.996L183.167 374.29L172.629 373.733L161.961 374.327L151.312 376.126L140.81 379.206L130.736 383.455L121.664 388.687L113.649 394.772L106.729 401.637L100.977 409.132L113.129 441.915L120.068 464.161" stroke="white" stroke-opacity="0.36" stroke-width="1.08501" stroke-linecap="round" stroke-linejoin="round"/>
<path d="M484.024 0.389709L475.118 8.73859L444.432 41.9113L410.739 83.0437L379.718 124.602L351.406 166.217L325.822 207.535L302.927 248.277L282.667 288.148L264.986 326.905L249.791 364.308L236.99 400.208L226.452 434.402L231.554 440.914L225.042 463.14" stroke="white" stroke-opacity="0.36" stroke-width="1.08501" stroke-linecap="round" stroke-linejoin="round"/>
<path d="M166.339 469.467L165.523 448.391L163.909 412.657L161.961 374.327L159.642 333.51L156.951 290.356L153.89 245.049L150.421 197.813L146.562 148.926L142.313 98.6467L137.675 47.3843L133.13 0.389709" stroke="white" stroke-opacity="0.36" stroke-width="1.08501" stroke-linecap="round" stroke-linejoin="round"/>
<path d="M-185.834 0.389709L-205.074 21.2805L-232.18 60.0562L-253.126 101.615L-267.431 145.53L-274.518 191.338L-273.831 238.518L-264.759 286.534L-246.67 334.753L-219.86 380.987L-185.482 423.103L-144.201 460.58L-96.7609 492.918L-44.0144 519.616L13.1106 540.228L73.6119 554.31L136.47 561.49L200.57 561.472L264.783 553.957L327.956 538.818L388.866 516.017L443.913 486.907L491.576 452.825L531.65 414.643L563.951 373.232L588.441 329.428L605.065 284.029L613.822 237.758L614.786 191.301L608.015 145.27L593.525 100.242L571.41 56.7166L541.966 15.5289L527.531 0.389709" stroke="white" stroke-opacity="0.36" stroke-width="1.08501" stroke-linecap="round" stroke-linejoin="round"/>
<path d="M159.475 469.467L158.065 449.671L155.041 414.179L151.312 376.127L146.859 335.662L141.664 292.916L135.672 248.055L128.881 201.32L121.274 152.989L112.851 103.322L103.63 52.6907L93.6306 1.48405L93.3892 0.389709" stroke="white" stroke-opacity="0.36" stroke-width="1.08501" stroke-linecap="round" stroke-linejoin="round"/>
<path d="M780.798 469.578L744.156 449.132L697.087 424.865L651.187 403.751L606.715 386.349L563.95 373.232L523.208 364.92L484.784 361.877L443.374 363.566L405.971 368.983L372.408 377.666L342.556 389.243L316.192 403.325L303.52 418.557L287.175 429.262L282.463 432.36L269.439 443.808" stroke="white" stroke-opacity="0.36" stroke-width="1.08501" stroke-linecap="round" stroke-linejoin="round"/>
<path d="M612.226 666.426L609.313 662.753L574.062 619.913L539.758 580.284L506.492 544.477L474.488 513.14L443.913 486.907L414.933 466.331L387.79 451.915L358.68 441.507L332.539 436.071L309.217 435.125L288.549 438.149L270.404 444.698" stroke="white" stroke-opacity="0.36" stroke-width="1.08501" stroke-linecap="round" stroke-linejoin="round"/>
<path d="M75.0583 446.85L56.9134 440.69L36.3378 438.111L13.1651 439.577L-12.7349 445.588L-41.4922 456.646L-68.2827 471.674L-96.7616 492.917L-126.762 519.856L-158.117 551.953L-190.659 588.558L-224.184 629.059L-253.609 666.425" stroke="white" stroke-opacity="0.36" stroke-width="1.08501" stroke-linecap="round" stroke-linejoin="round"/>
<path d="M152.499 468.966L150.699 451.86L146.265 416.758L140.81 379.206L134.242 339.298L126.543 297.22L117.656 253.138L107.563 207.275L96.2456 159.872L83.7037 111.244L69.9189 61.7263L54.9278 11.6882L51.2915 0.389709" stroke="white" stroke-opacity="0.36" stroke-width="1.08501" stroke-linecap="round" stroke-linejoin="round"/>
<path d="M237.008 459.893L238.548 455.552L251.591 425.385L267.454 394.364L263.242 383.751L257.231 373.547L249.791 364.308L241.146 356.182L231.424 349.206L220.793 343.398L209.438 338.834L197.49 335.513L185.115 333.473L172.443 332.805L159.642 333.51L146.859 335.662L134.243 339.298L122.146 344.363L111.237 350.597L101.571 357.851L93.2405 366.015L86.2831 374.957L80.7915 384.568L96.4316 417.184L109.363 448.668L114.224 462.825" stroke="white" stroke-opacity="0.36" stroke-width="1.08501" stroke-linecap="round" stroke-linejoin="round"/>
<path d="M145.486 468.187L143.649 454.903L137.879 420.338L130.736 383.455L122.146 344.363L112.053 303.231L100.383 260.226L87.1181 215.55L72.2013 169.482L55.6521 122.32L37.4329 74.3791L17.6184 26.0116L6.28223 0.389709" stroke="white" stroke-opacity="0.36" stroke-width="1.08501" stroke-linecap="round" stroke-linejoin="round"/>
<path d="M-122.549 0.389709L-139.581 14.9165L-168.969 47.3662L-193.125 82.6171L-211.66 120.335L-224.127 160.094L-230.083 201.486L-229.007 244.01L-220.38 287.201L-203.7 330.467L-179.248 371.859L-148.116 409.485L-110.898 442.899L-68.2816 471.675L-21.027 495.404L30.0682 513.697L84.1131 526.184L140.218 532.566L197.398 532.529L254.69 525.887L311.129 512.455L365.619 492.194L414.933 466.331L457.791 435.979L493.932 401.915L523.209 364.92L545.547 325.699L560.89 284.957L569.221 243.324L570.556 201.449L564.879 159.853L552.263 119.074L532.689 79.5927L506.418 42.1341L475.119 8.73859L464.915 0.389709" stroke="white" stroke-opacity="0.36" stroke-width="1.08501" stroke-linecap="round" stroke-linejoin="round"/>
<path d="M104.391 460.597L92.2015 461.562L78.4539 467.054L63.0919 477.61L46.0046 493.807L30.0673 513.696L13.11 540.227L-4.79399 572.862L-23.5323 611.044L-42.9949 654.143L-48.2266 666.425" stroke="white" stroke-opacity="0.36" stroke-width="1.08501" stroke-linecap="round" stroke-linejoin="round"/>
<path d="M390.164 666.426L384.041 652.196L364.524 609.301L345.785 571.305L327.956 538.818L311.128 512.455L295.413 492.714L278.623 476.684L263.577 466.257L250.218 460.877L238.418 460.005" stroke="white" stroke-opacity="0.36" stroke-width="1.08501" stroke-linecap="round" stroke-linejoin="round"/>
<path d="M287.678 0.389709L284.579 10.4082L270.182 60.5943L257.01 110.242L245.061 158.981L234.356 206.495L224.857 252.47L216.564 296.664L209.439 338.835L203.447 378.798L198.512 416.424L194.597 451.582L193.076 468.428" stroke="white" stroke-opacity="0.36" stroke-width="1.08501" stroke-linecap="round" stroke-linejoin="round"/>
<path d="M138.788 467.426L137.304 458.613L130.328 424.736L121.663 388.687L111.236 350.598L98.9541 310.616L84.7612 268.927L68.583 225.754L50.4009 181.338L30.1596 135.975L7.89596 89.9826L-16.3716 43.7109L-41.0101 0.389709" stroke="white" stroke-opacity="0.36" stroke-width="1.08501" stroke-linecap="round" stroke-linejoin="round"/>
<path d="M226.452 434.402L220.478 428.687L213.743 423.752L206.396 419.652L198.511 416.424L190.218 414.067L181.609 412.639L172.815 412.156L163.909 412.657L155.041 414.179L146.265 416.758L137.88 420.338L130.329 424.735L123.649 429.856L117.898 435.607L113.13 441.916L109.364 448.669L106.655 455.775L105.672 460.32" stroke="white" stroke-opacity="0.36" stroke-width="1.08501" stroke-linecap="round" stroke-linejoin="round"/>
<path d="M154.151 472.026L151.034 479.336L147.565 491.952L143.743 510.468L140.218 532.565L136.47 561.489L132.556 596.74L128.474 637.724L125.839 666.425" stroke="white" stroke-opacity="0.36" stroke-width="1.08501" stroke-linecap="round" stroke-linejoin="round"/>
<path d="M130.218 466.479L122.648 468.502L115.617 466.906L92.2025 461.563L91.2935 461.247L63.2781 451.377L44.6327 455.125L23.779 463.696L0.587701 477.63L-21.0269 495.404L-44.014 519.615L-68.2815 549.764L-93.6436 585.275L-120.007 625.516L-145.128 666.426" stroke="white" stroke-opacity="0.36" stroke-width="1.08501" stroke-linecap="round" stroke-linejoin="round"/>
<path d="M326.248 666.426L384.041 652.196L466.101 620.508L539.757 580.285L602.949 533.382L655.436 481.155L697.087 424.865L727.922 365.755L748.015 304.882L757.515 243.305L756.661 181.931L745.64 121.56L724.657 62.9135L693.915 6.64186L689.183 0.389709" stroke="white" stroke-opacity="0.36" stroke-width="1.08501" stroke-linecap="round" stroke-linejoin="round"/>
<path d="M296.712 666.425L286.749 628.261L275.487 588.279L264.782 553.956L254.689 525.886L245.301 504.568L235.301 486.887L226.359 474.995L218.418 468.334L211.442 466.33" stroke="white" stroke-opacity="0.36" stroke-width="1.08501" stroke-linecap="round" stroke-linejoin="round"/>
<path d="M213.038 461.953L207.399 457.797L201.22 454.327L194.597 451.582L187.639 449.578L180.404 448.372L173.001 447.964L165.524 448.39L158.066 449.67L150.7 451.86L143.65 454.903L137.305 458.613L131.702 462.955" stroke="white" stroke-opacity="0.36" stroke-width="1.08501" stroke-linecap="round" stroke-linejoin="round"/>
<path d="M77.3596 447.24L76.061 446.405L75.801 446.071L62.851 434.976L51.5153 421.952L42.2945 407.462L38.862 404.921L17.3774 389.002L-11.0456 372.36L-43.124 357.888L-79.0615 345.94L-118.969 336.905L-163.014 331.191L-203.701 330.467L-246.67 334.753L-291.624 343.603L-338.211 356.515L-386.152 372.916L-404 379.966" stroke="white" stroke-opacity="0.36" stroke-width="1.08501" stroke-linecap="round" stroke-linejoin="round"/>
<path d="M273.948 337.869L264.987 326.904L254.579 317.238L242.909 308.964L230.182 302.08L216.564 296.663L202.259 292.73L187.436 290.318L172.277 289.52L156.952 290.355L141.665 292.915L126.544 297.219L112.054 303.231L98.9556 310.615L87.3599 319.223L77.3229 328.926L68.9554 339.558L62.3133 350.986L57.4897 363.046L76.8219 394.679L93.1673 425.662L106.655 455.774L108.752 461.396" stroke="white" stroke-opacity="0.36" stroke-width="1.08501" stroke-linecap="round" stroke-linejoin="round"/>
<path d="M424.117 0.389709L412.725 15.566L383.133 59.6853L355.842 104.045L330.906 148.258L308.327 191.987L288.104 234.919L270.219 276.756L254.579 317.239L241.147 356.182L229.792 393.381L220.478 428.687L213.038 461.953L216.359 465.181" stroke="white" stroke-opacity="0.36" stroke-width="1.08501" stroke-linecap="round" stroke-linejoin="round"/>
<path d="M100.607 0.389709L93.631 1.48405L54.9291 11.6882L17.6192 26.0116L-16.3702 43.7109L-46.7971 64.4721L-73.4766 87.9973L-96.1484 113.972L-114.59 142.116L-128.523 172.098L-137.614 203.564L-141.566 236.18L-140.008 269.557L-132.605 303.269L-118.969 336.905L-99.4509 368.928L-74.905 397.926L-45.8137 423.566L-12.7339 445.589L23.7789 463.697L63.0928 477.612L104.577 487.111L147.565 491.953L191.387 491.935L235.302 486.888L278.624 476.684L320.554 461.248L358.68 441.508L391.965 418.279L420.258 392.1L443.375 363.566L461.241 333.213L473.783 301.525L480.945 269.02L482.67 236.162L478.941 203.379L469.739 171.097L455.008 139.704L434.933 109.797L410.74 83.0437L383.133 59.6852L352.595 39.7778L319.589 23.3396L284.579 10.4082L247.974 1.07594L243.503 0.389709" stroke="white" stroke-opacity="0.36" stroke-width="1.08501" stroke-linecap="round" stroke-linejoin="round"/>
<path d="M128.584 466.109L131.701 462.955L123.649 429.856L113.649 394.772L101.571 357.852L87.3589 319.224L70.9025 279.094L52.1266 237.665L30.9949 195.178L7.4697 151.95L-18.4675 108.257L-46.798 64.4721L-77.4663 20.9648L-93.6633 0.389709" stroke="white" stroke-opacity="0.36" stroke-width="1.08501" stroke-linecap="round" stroke-linejoin="round"/>
<path d="M213.037 461.952L212.295 466.127" stroke="white" stroke-opacity="0.36" stroke-width="1.08501" stroke-linecap="round" stroke-linejoin="round"/>
<path d="M132.444 466.721L131.702 462.955" stroke="white" stroke-opacity="0.36" stroke-width="1.08501" stroke-linecap="round" stroke-linejoin="round"/>
<path d="M93.2791 455.812L91.5533 452.602L90.6628 443.474L91.2195 434.457L93.1676 425.663L96.433 417.184L100.978 409.133L86.2845 374.957L68.9558 339.559L48.8627 303.12L25.8756 265.865L-0.0615341 228.017L-29.0416 189.891L-61.0643 151.764L-96.148 113.972L-134.274 76.9026L-168.969 47.3662L-205.073 21.2805L-238.988 0.389709" stroke="white" stroke-opacity="0.36" stroke-width="1.08501" stroke-linecap="round" stroke-linejoin="round"/>
<path d="M84.3913 451.433L82.3874 448.595L77.6377 437.834L75.5786 435.367L72.6842 431.897L58.2313 414.55L55.8193 412.157L35.5966 392.119L32.758 389.819L9.5109 370.82L4.90977 352.453L3.44401 334.122L4.94692 316.089L-25.109 286.719L-58.8383 257.962L-96.3157 230.132L-137.615 203.565L-182.773 178.611L-224.128 160.095L-267.431 145.531L-312.273 134.566L-358.304 126.848L-404 122.043" stroke="white" stroke-opacity="0.36" stroke-width="1.08501" stroke-linecap="round" stroke-linejoin="round"/>
<path d="M209.921 666.427L207.565 637.669L203.965 596.704L200.57 561.472L197.398 532.529L194.466 510.432L191.386 491.935L188.641 479.319L186.247 472.009L184.151 469.449" stroke="white" stroke-opacity="0.36" stroke-width="1.08501" stroke-linecap="round" stroke-linejoin="round"/>
<path d="M84.1127 451.303L82.3874 448.594L79.623 445.44L63.89 427.425L60.8475 424.605L42.2944 407.462L35.5966 392.118L31.6264 376.589L30.2902 361.079L3.44396 334.121L-27.0386 307.85L-61.3061 282.562L-99.4513 258.555L-141.567 236.179L-187.708 215.79L-230.083 201.485L-274.518 191.337L-320.66 184.973L-368.155 182.023L-404 181.986" stroke="white" stroke-opacity="0.36" stroke-width="1.08501" stroke-linecap="round" stroke-linejoin="round"/>
<path d="M92.2761 455.311L91.5523 452.602L90.2165 450.561L74.7807 426.925L73.7416 415.997L74.4464 405.218L76.8213 394.68L80.7919 384.568L62.3127 350.987L40.8657 316.645L16.3014 281.747L-11.4544 246.552L-42.4936 211.357L-76.8723 176.44L-114.591 142.116L-155.667 108.777L-193.126 82.617L-232.18 60.0562L-272.459 40.8169L-313.628 24.5644L-355.372 10.9463L-394.334 0.389709" stroke="white" stroke-opacity="0.36" stroke-width="1.08501" stroke-linecap="round" stroke-linejoin="round"/>
<path d="M780.799 183.118L756.662 181.93L708.202 181.967L660.798 184.936L614.787 191.3L570.556 201.448L528.441 215.752L482.67 236.161L440.963 258.536L403.244 282.525L369.422 307.831L339.404 334.102L313.021 361.06L311.63 376.329L307.808 391.302L301.648 405.773L293.169 419.539L282.464 432.359L269.997 444.382L265.562 446.998L264.783 447.35L262.872 447.851L260.812 449.614" stroke="white" stroke-opacity="0.36" stroke-width="1.08501" stroke-linecap="round" stroke-linejoin="round"/>
<path d="M780.8 246.885L757.516 243.304L708.332 238.202L660.316 236.198L613.822 237.757L569.221 243.323L526.883 253.323L480.945 269.019L439.182 287.108L401.483 307.219L367.772 329.001L340.628 350.003L337.864 352.155L313.949 374.196L311.63 376.33L290.814 399.168L288.884 401.283L273.522 421.414L269.44 426.739L266.695 437.258L262.316 447.406L261.017 449.521" stroke="white" stroke-opacity="0.36" stroke-width="1.08501" stroke-linecap="round" stroke-linejoin="round"/>
<path d="M495.155 666.427L493.875 664.311L466.101 620.508L439.255 580.767L413.466 545.72L388.865 516.017L365.618 492.194L343.836 474.81L320.553 461.248L299.662 453.029L281.072 449.597L264.615 450.432L256.025 453.382L252.296 454.662L250.181 455.07" stroke="white" stroke-opacity="0.36" stroke-width="1.08501" stroke-linecap="round" stroke-linejoin="round"/>
<path d="M716.271 0.389709L693.914 6.64186L652.355 20.5938L611.427 37.162L571.408 56.7166L532.688 79.5927L495.6 106.031L455.006 139.704L417.77 174.325L383.911 209.52L353.391 244.993L326.155 280.411L302.129 315.495L281.201 350.022L263.242 383.752L248.102 416.498L251.59 425.385L253.557 434.402L254.058 443.474L253.13 452.454L252.351 453.957" stroke="white" stroke-opacity="0.36" stroke-width="1.08501" stroke-linecap="round" stroke-linejoin="round"/>
<path d="M780.799 54.2491L769.685 55.5849L724.657 62.9132L680.074 72.5236L636.252 84.8431L593.524 100.242L552.262 119.073L512.818 141.671L469.738 171.096L430.294 201.783L394.505 233.379L362.297 265.55L333.596 297.999L308.308 330.448L286.322 362.657L267.454 394.364L269.866 405.143L270.515 415.997L269.439 426.739L256.378 447.333L253.131 452.453L252.797 453.733" stroke="white" stroke-opacity="0.36" stroke-width="1.08501" stroke-linecap="round" stroke-linejoin="round"/>
<path d="M248.123 0.389709L247.974 1.07594L238.29 52.3383L229.421 103.007L221.388 152.692L214.189 201.078L207.826 247.832L202.26 292.731L197.491 335.514L193.484 375.997L190.219 414.067L187.64 449.578L186.49 469.189" stroke="white" stroke-opacity="0.36" stroke-width="1.08501" stroke-linecap="round" stroke-linejoin="round"/>
<path d="M780.799 313.491L748.015 304.882L698.943 294.492L651.187 287.368L605.064 284.028L560.889 284.956L519.071 290.559L473.782 301.524L432.706 315.309L395.73 331.524L362.687 349.817L336.527 367.74L333.447 369.855L326.193 386.998L304.727 403.417L301.647 405.773L283.168 423.38L280.422 426.015L268.066 440.616L262.314 447.406" stroke="white" stroke-opacity="0.36" stroke-width="1.08501" stroke-linecap="round" stroke-linejoin="round"/>
<path d="M242.63 457.834L242.816 457.444L253.558 434.401L269.866 405.143L289.272 375.513L311.926 345.717L337.993 315.976L333.596 297.999L326.156 280.41L315.711 263.509L302.928 248.276L288.104 234.918L271.573 223.471L253.558 213.99L234.356 206.495L214.188 201.077L193.316 197.775L171.98 196.662L150.421 197.812L128.881 201.319L107.564 207.274L87.1183 215.549L68.5838 225.753L52.127 237.664L37.8598 251.096L25.8746 265.865L16.3014 281.746L9.28824 298.555L4.94666 316.088L31.4776 345.791L54.5761 375.588L74.4464 405.217L91.2184 434.457L103.037 458.965L103.297 459.485" stroke="white" stroke-opacity="0.36" stroke-width="1.08501" stroke-linecap="round" stroke-linejoin="round"/>
<path d="M233.576 461.137L236.6 460.024L236.971 459.894H237.008L239.365 459.337L242.444 458.205L247.714 456.294L251.739 455.125L252.296 454.476L252.5 454.124L256.025 453.381L264.615 450.432L270.181 447.575L288.549 438.149L293.855 434.495L309.606 423.641L327.64 407.24L342.557 389.243L354.264 370.004L362.687 349.818L367.77 329.002L369.421 307.833L367.622 286.59L362.297 265.55L353.392 244.993L340.98 225.272L325.822 207.535L308.326 191.987L288.827 178.685L267.64 167.664L245.06 158.981L221.386 152.692L196.896 148.87L171.868 147.571L146.562 148.926L121.274 152.989L96.246 159.872L72.2013 169.482L50.4014 181.338L30.995 195.179L14.1301 210.819L-0.062823 228.017L-11.4547 246.552L-19.8588 266.2L-25.1095 286.719L-27.0391 307.851L-25.4804 329.354L-20.1931 350.95L-11.0461 372.36L1.7182 392.639L17.5069 410.877L36.0228 426.962L57.396 435.237L75.8005 446.072L77.0439 446.981L77.3591 447.24L79.5482 448.892L80.4759 449.393L81.7745 450.153L84.1122 451.304L84.3908 451.433L85.2256 451.841L88.2314 453.326L92.3316 455.534L93.4073 456.053L94.4093 456.369L98.1199 458.02L103.704 460.357L105.022 460.45L106.079 460.469L108.788 461.508L110.254 461.935" stroke="white" stroke-opacity="0.36" stroke-width="1.08501" stroke-linecap="round" stroke-linejoin="round"/>
<path d="M93.8716 456.888L89.4376 455.106L79.8273 451.953L74.2056 449.188L56.914 440.691L36.0233 426.962L11.8114 421.952L-15.4058 420.672L-45.8141 423.566L-79.5437 431.155L-110.898 442.899L-144.201 460.58L-179.229 483.716L-215.798 511.73L-253.646 544.032L-292.626 579.987L-332.515 618.949L-373.202 660.285L-379.102 666.426" stroke="white" stroke-opacity="0.36" stroke-width="1.08501" stroke-linecap="round" stroke-linejoin="round"/>
<path d="M79.7901 448.632L79.4377 448.353L79.252 448.279L71.6637 439.578L67.7306 436.127L51.5153 421.952L47.3966 419.17L28.2682 406.201L17.3774 389.002L9.51087 370.82L-20.1926 350.95L-53.6805 332.842L-91.1024 316.831L-132.606 303.269L-178.265 292.563L-220.38 287.201L-264.759 286.534L-311.067 290.133L-358.953 297.554L-404 307.35" stroke="white" stroke-opacity="0.36" stroke-width="1.08501" stroke-linecap="round" stroke-linejoin="round"/>
<path d="M88.2318 453.326L87.4709 452.231L77.6377 437.834L74.7809 426.925L73.148 424.847L54.8549 401.507L53.6672 388.464L54.5763 375.588L57.4893 363.047L35.0399 330.931L9.28845 298.556L-19.8584 266.2L-52.4934 234.14L-88.6904 202.655L-128.524 172.099L-171.957 142.803L-211.66 120.335L-253.126 101.615L-296.002 86.3458L-339.899 74.1754L-384.519 64.7131L-404 61.6149" stroke="white" stroke-opacity="0.36" stroke-width="1.08501" stroke-linecap="round" stroke-linejoin="round"/>
<path d="M76.061 446.405L75.5043 446.591L57.3965 435.236L41.7006 421.655L28.2682 406.201L1.71867 392.638L-28.3001 381.636L-61.9742 373.603L-99.4513 368.927L-140.88 368.055L-179.248 371.859L-219.861 380.987L-262.44 394.976L-306.67 413.307L-352.311 435.403L-399.065 460.672L-404 463.548" stroke="white" stroke-opacity="0.36" stroke-width="1.08501" stroke-linecap="round" stroke-linejoin="round"/>
<path d="M154.15 472.026L186.247 472.008H186.322L192.834 471.247L218.419 468.334L223.892 467.035L229.959 465.625L250.218 460.876L252.352 460.097L254.152 459.428L281.072 449.595L309.217 435.124L333.911 418.055L355.006 398.76L372.409 377.665L386.009 355.123L395.73 331.524L401.482 307.219L403.244 282.525L400.925 257.812L394.506 233.378L383.912 209.519L369.255 186.698L351.407 166.216L330.906 148.256L308.086 132.932L283.336 120.223L257.009 110.241L229.42 103.006L200.905 98.5898L171.757 97.1241L142.314 98.6456L112.851 103.321L83.7045 111.243L55.6525 122.319L30.1606 135.974L7.47021 151.948L-12.3262 170.001L-29.0426 189.889L-42.4935 211.355L-52.4934 234.139L-58.8384 257.961L-61.3062 282.562L-59.6737 307.609L-53.6806 332.841L-43.1241 357.888L-28.3002 381.636L-9.85852 403.064L11.8113 421.951L36.3384 438.111L63.2775 451.376L79.8272 451.952L89.4376 455.105L92.3319 455.533L93.2782 455.811L93.8163 456.07L94.1315 456.627L98.1203 458.018L103.297 459.484L105.022 460.449L108.788 461.507L110.254 461.933L114.225 462.824L120.069 464.16L126.247 465.57L128.585 466.108L130.217 466.479L132.443 466.72L138.789 467.425L145.486 468.185L152.499 468.965L156.933 469.466" stroke="white" stroke-opacity="0.36" stroke-width="1.08501" stroke-linecap="round" stroke-linejoin="round"/>
<path d="M780.799 119.63L745.641 121.56L698.739 126.513L652.746 134.287L608.014 145.27L564.879 159.853L523.765 178.388L478.941 203.379L438.012 229.965L400.925 257.814L367.622 286.589L337.993 315.977L339.403 334.103L337.863 352.156L333.448 369.855L310.46 389.095L307.807 391.303L287.9 411.563L285.636 413.863L271.443 431.396L266.694 437.259L257.751 450.784L257.343 451.415" stroke="white" stroke-opacity="0.36" stroke-width="1.08501" stroke-linecap="round" stroke-linejoin="round"/>
<path d="M247.9 455.904L247.955 455.792L254.059 443.473L270.516 415.996L290.108 388.445L313.021 361.06L311.926 345.717L308.309 330.448L302.13 315.494L293.41 301.115L282.668 288.147L270.219 276.755L256.286 266.978L241.091 258.87L224.857 252.469L207.825 247.831L190.163 245.011L172.129 244.064L153.891 245.048L135.672 248.054L117.657 253.137L100.384 260.225L84.7627 268.926L70.9036 279.093L58.8998 290.54L48.8623 303.119L40.8663 316.644L35.0403 330.93L31.4783 345.791L30.2906 361.079L53.6677 388.463L73.7422 415.996L90.6624 443.473L97.787 457.388L97.8984 457.592" stroke="white" stroke-opacity="0.36" stroke-width="1.08501" stroke-linecap="round" stroke-linejoin="round"/>
<path d="M80.2726 449.17L79.5487 448.892L75.5043 446.591L62.851 434.977L57.7675 431.767L41.7007 421.656L17.5074 410.876L-9.8584 403.066L-40.6195 398.594L-74.9054 397.926L-112.865 401.507L-148.116 409.485L-185.482 423.103L-224.74 441.878L-265.612 465.274L-307.858 492.714L-351.272 523.549L-395.614 557.167L-404 563.828" stroke="white" stroke-opacity="0.36" stroke-width="1.08501" stroke-linecap="round" stroke-linejoin="round"/>
<path d="M780.799 386.051L776.996 384.437L727.923 365.754L679.926 349.966L633.34 337.684L588.441 329.427L545.547 325.698L505.027 326.941L461.241 333.212L421.612 342.73L386.009 355.123L354.264 370.003L326.194 386.997L316.193 403.324L296.898 416.905L293.169 419.54L276.861 434.326L273.299 437.555L265.989 446.274L265.562 446.998L264.987 447.481" stroke="white" stroke-opacity="0.36" stroke-width="1.08501" stroke-linecap="round" stroke-linejoin="round"/>
<path d="M745.176 666.427L724.861 646.278L683.376 606.111L642.689 568.262L602.949 533.383L564.377 502.102L527.178 475.051L491.574 452.825L457.789 435.979L426.045 425.014L391.963 418.279L361.313 416.109L333.911 418.056L309.606 423.641L288.214 432.435L269.995 444.384L267.583 445.422" stroke="white" stroke-opacity="0.36" stroke-width="1.08501" stroke-linecap="round" stroke-linejoin="round"/>
<path d="M81.775 450.152L80.4763 449.391L79.7344 448.704L79.4377 448.352L71.6636 439.576L63.89 427.424L58.2312 414.548L54.8549 401.505L52.8882 399.391L31.6264 376.589L29.2701 374.455L4.90972 352.451L2.08962 350.299L-25.48 329.353L-59.6736 307.608L-97.8 287.571L-140.008 269.556L-186.354 253.934L-229.007 244.009L-273.832 238.517L-320.492 237.033L-368.638 239.129L-404 242.858" stroke="white" stroke-opacity="0.36" stroke-width="1.08501" stroke-linecap="round" stroke-linejoin="round"/>
<path d="M780.78 0H-404V667.502H780.78V0Z" stroke="white" stroke-opacity="0.36" stroke-width="1.08501" stroke-linecap="round" stroke-linejoin="round"/>
</svg>
